<svg width="309" height="141" viewBox="0 0 309 141" fill="none" xmlns="http://www.w3.org/2000/svg">
<g clip-path="url(#clip0_127_18334)">
<path d="M0 143H307V92H0V143Z" fill="black" fill-opacity="0.15"/>
<path d="M2 92H309V41H2V92Z" fill="black" fill-opacity="0.15"/>
<rect x="4" y="6" width="284" height="86" fill="#BF650F"/>
<rect x="8" y="92" width="276" height="43" fill="#BF650F"/>
<path d="M4 100H288V92H4V100Z" fill="black" fill-opacity="0.33"/>
<path d="M33 130H258V105H33V130Z" fill="black" fill-opacity="0.15"/>
<path d="M20 135H8V92H20V135Z" fill="black" fill-opacity="0.15"/>
<path d="M16 84H4V6H16V84Z" fill="black" fill-opacity="0.15"/>
<path d="M288 84H276V6H288V84Z" fill="black" fill-opacity="0.15"/>
<path d="M276 84H16V77H276V84Z" fill="black" fill-opacity="0.15"/>
<path d="M284 135H272V92H284V135Z" fill="black" fill-opacity="0.15"/>
<path d="M4 92H288V84H4V92Z" fill="black" fill-opacity="0.22"/>
<path d="M4 92H288V84H4V92Z" fill="black" fill-opacity="0.2"/>
<rect y="6" width="4" height="86" fill="#3B3C3E"/>
<rect x="4" y="92" width="4" height="43" fill="#3B3C3E"/>
<rect x="284" y="92" width="4" height="43" fill="#3B3C3E"/>
<rect x="288" y="6" width="4" height="86" fill="#3B3C3E"/>
<rect width="284" height="4" transform="matrix(1 0 0 -1 4 6)" fill="#3B3C3E"/>
<rect width="276" height="4" transform="matrix(1 0 0 -1 8 139)" fill="#3B3C3E"/>
<rect x="171" y="14" width="80" height="57" fill="#8589B2"/>
<rect width="80" height="1" transform="matrix(1 0 0 -1 171 71)" fill="black" fill-opacity="0.2"/>
<rect x="210" y="68" width="4" height="2" fill="black" fill-opacity="0.33"/>
<rect x="174" y="17" width="37" height="51" fill="#EDDEB4"/>
<rect x="174" y="66" width="2" height="2" fill="black" fill-opacity="0.2"/>
<rect x="176" y="65" width="2" height="3" fill="black" fill-opacity="0.2"/>
<rect x="178" y="64" width="2" height="3" fill="black" fill-opacity="0.2"/>
<rect x="180" y="63" width="2" height="4" fill="black" fill-opacity="0.2"/>
<rect x="182" y="62" width="5" height="5" fill="black" fill-opacity="0.2"/>
<rect x="197" y="61" width="4" height="6" fill="black" fill-opacity="0.2"/>
<rect x="201" y="62" width="4" height="5" fill="black" fill-opacity="0.2"/>
<rect x="205" y="63" width="3" height="4" fill="black" fill-opacity="0.2"/>
<rect x="208" y="64" width="3" height="3" fill="black" fill-opacity="0.2"/>
<rect x="178" y="67" width="33" height="1" fill="black" fill-opacity="0.2"/>
<rect x="187" y="60" width="10" height="7" fill="black" fill-opacity="0.2"/>
<rect x="174" y="15" width="2" height="2" fill="#EDDEB4"/>
<rect x="176" y="14" width="2" height="3" fill="#EDDEB4"/>
<rect x="178" y="13" width="2" height="3" fill="#EDDEB4"/>
<rect x="180" y="12" width="2" height="4" fill="#EDDEB4"/>
<rect x="182" y="11" width="5" height="5" fill="#EDDEB4"/>
<rect x="197" y="10" width="4" height="6" fill="#EDDEB4"/>
<rect x="201" y="11" width="4" height="5" fill="#EDDEB4"/>
<rect x="205" y="12" width="3" height="4" fill="#EDDEB4"/>
<rect x="208" y="13" width="3" height="3" fill="#EDDEB4"/>
<rect x="178" y="16" width="33" height="1" fill="#EDDEB4"/>
<rect x="187" y="9" width="10" height="7" fill="#EDDEB4"/>
<rect x="211" y="17" width="37" height="51" fill="#EDDEB4"/>
<rect x="211" y="66" width="2" height="2" fill="black" fill-opacity="0.2"/>
<rect x="213" y="65" width="2" height="3" fill="black" fill-opacity="0.2"/>
<rect x="215" y="64" width="2" height="3" fill="black" fill-opacity="0.2"/>
<rect x="217" y="63" width="2" height="4" fill="black" fill-opacity="0.2"/>
<rect x="219" y="62" width="5" height="5" fill="black" fill-opacity="0.2"/>
<rect x="234" y="61" width="4" height="6" fill="black" fill-opacity="0.2"/>
<rect x="238" y="62" width="4" height="5" fill="black" fill-opacity="0.2"/>
<rect x="242" y="63" width="3" height="4" fill="black" fill-opacity="0.2"/>
<rect x="245" y="64" width="3" height="3" fill="black" fill-opacity="0.2"/>
<rect x="215" y="67" width="33" height="1" fill="black" fill-opacity="0.2"/>
<rect x="224" y="60" width="10" height="7" fill="black" fill-opacity="0.2"/>
<rect x="211" y="15" width="2" height="2" fill="#EDDEB4"/>
<rect x="213" y="14" width="2" height="3" fill="#EDDEB4"/>
<rect x="215" y="13" width="2" height="3" fill="#EDDEB4"/>
<rect x="217" y="12" width="2" height="4" fill="#EDDEB4"/>
<rect x="219" y="11" width="5" height="5" fill="#EDDEB4"/>
<rect x="234" y="10" width="4" height="6" fill="#EDDEB4"/>
<rect x="238" y="11" width="4" height="5" fill="#EDDEB4"/>
<rect x="242" y="12" width="3" height="4" fill="#EDDEB4"/>
<rect x="245" y="13" width="3" height="3" fill="#EDDEB4"/>
<rect x="215" y="16" width="33" height="1" fill="#EDDEB4"/>
<rect x="224" y="9" width="10" height="7" fill="#EDDEB4"/>
<rect x="178" y="54" width="7" height="2" fill="black" fill-opacity="0.33"/>
<rect x="200" y="54" width="7" height="2" fill="black" fill-opacity="0.33"/>
<rect x="185" y="53" width="15" height="2" fill="black" fill-opacity="0.33"/>
<rect x="215" y="54" width="7" height="2" fill="black" fill-opacity="0.33"/>
<rect x="237" y="54" width="7" height="2" fill="black" fill-opacity="0.33"/>
<rect x="222" y="53" width="15" height="2" fill="black" fill-opacity="0.33"/>
<rect x="215" y="49" width="7" height="2" fill="black" fill-opacity="0.33"/>
<rect x="237" y="49" width="7" height="2" fill="black" fill-opacity="0.33"/>
<rect x="222" y="48" width="15" height="2" fill="black" fill-opacity="0.33"/>
<rect x="215" y="44" width="7" height="2" fill="black" fill-opacity="0.33"/>
<rect x="237" y="44" width="7" height="2" fill="black" fill-opacity="0.33"/>
<rect x="222" y="43" width="15" height="2" fill="black" fill-opacity="0.33"/>
<rect x="215" y="39" width="7" height="2" fill="black" fill-opacity="0.33"/>
<rect x="237" y="39" width="7" height="2" fill="black" fill-opacity="0.33"/>
<rect x="222" y="38" width="15" height="2" fill="black" fill-opacity="0.33"/>
<rect x="215" y="34" width="7" height="2" fill="black" fill-opacity="0.33"/>
<rect x="237" y="34" width="7" height="2" fill="black" fill-opacity="0.33"/>
<rect x="222" y="33" width="15" height="2" fill="black" fill-opacity="0.33"/>
<rect x="215" y="29" width="7" height="2" fill="black" fill-opacity="0.33"/>
<rect x="237" y="29" width="7" height="2" fill="black" fill-opacity="0.33"/>
<rect x="222" y="28" width="15" height="2" fill="black" fill-opacity="0.33"/>
<rect x="215" y="24" width="7" height="2" fill="black" fill-opacity="0.33"/>
<rect x="237" y="24" width="7" height="2" fill="black" fill-opacity="0.33"/>
<rect x="222" y="23" width="15" height="2" fill="black" fill-opacity="0.33"/>
<rect x="215" y="18" width="7" height="2" fill="black" fill-opacity="0.33"/>
<rect x="237" y="18" width="7" height="2" fill="black" fill-opacity="0.33"/>
<rect x="222" y="17" width="15" height="2" fill="black" fill-opacity="0.33"/>
<rect x="178" y="49" width="7" height="2" fill="black" fill-opacity="0.33"/>
<rect x="200" y="49" width="7" height="2" fill="black" fill-opacity="0.33"/>
<rect x="185" y="48" width="15" height="2" fill="black" fill-opacity="0.33"/>
<rect x="178" y="44" width="7" height="2" fill="black" fill-opacity="0.33"/>
<rect x="200" y="44" width="7" height="2" fill="black" fill-opacity="0.33"/>
<rect x="185" y="43" width="15" height="2" fill="black" fill-opacity="0.33"/>
<rect x="178" y="39" width="7" height="2" fill="black" fill-opacity="0.33"/>
<rect x="178" y="19" width="12" height="16" fill="black" fill-opacity="0.33"/>
<rect x="200" y="39" width="7" height="2" fill="black" fill-opacity="0.33"/>
<rect x="185" y="38" width="15" height="2" fill="black" fill-opacity="0.33"/>
<rect x="200" y="34" width="7" height="2" fill="black" fill-opacity="0.33"/>
<rect x="192" y="33" width="8" height="2" fill="black" fill-opacity="0.33"/>
<rect x="200" y="29" width="7" height="2" fill="black" fill-opacity="0.33"/>
<rect x="192" y="28" width="8" height="2" fill="black" fill-opacity="0.33"/>
<rect x="200" y="24" width="7" height="2" fill="black" fill-opacity="0.33"/>
<rect x="192" y="23" width="8" height="2" fill="black" fill-opacity="0.33"/>
<rect x="200" y="18" width="7" height="2" fill="black" fill-opacity="0.33"/>
<rect x="192" y="17" width="8" height="2" fill="black" fill-opacity="0.33"/>
<rect x="211" y="15" width="1" height="53" fill="black" fill-opacity="0.33"/>
<rect x="21" y="15" width="4" height="4" fill="white"/>
<rect width="1" height="2" transform="matrix(-1 0 0 1 21 16)" fill="white"/>
<rect x="25" y="16" width="4" height="4" fill="white"/>
<rect x="29" y="17" width="4" height="4" fill="white"/>
<rect x="33" y="18" width="4" height="4" fill="white"/>
<rect x="35" y="18" width="2" height="4" fill="#B4C3FF"/>
<rect x="34" y="19" width="2" height="2" fill="#B4C3FF"/>
<rect x="20" y="18" width="1" height="3" fill="black" fill-opacity="0.15"/>
<rect x="20" y="13" width="1" height="3" fill="black" fill-opacity="0.15"/>
<rect x="37" y="22" width="2" height="2" fill="black" fill-opacity="0.15"/>
<rect x="37" y="16" width="2" height="2" fill="black" fill-opacity="0.15"/>
<rect x="17" y="15" width="3" height="4" fill="black" fill-opacity="0.15"/>
<rect x="21" y="19" width="4" height="3" fill="black" fill-opacity="0.15"/>
<rect x="25" y="20" width="4" height="3" fill="black" fill-opacity="0.15"/>
<rect x="29" y="21" width="4" height="3" fill="black" fill-opacity="0.15"/>
<rect x="33" y="22" width="4" height="3" fill="black" fill-opacity="0.15"/>
<rect x="33" y="15" width="4" height="3" fill="black" fill-opacity="0.15"/>
<rect x="29" y="14" width="4" height="3" fill="black" fill-opacity="0.15"/>
<rect x="25" y="13" width="4" height="3" fill="black" fill-opacity="0.15"/>
<rect x="21" y="12" width="4" height="3" fill="black" fill-opacity="0.15"/>
<rect x="37" y="18" width="3" height="4" fill="black" fill-opacity="0.15"/>
<rect x="115" y="15" width="41" height="56" fill="#A24646"/>
<rect x="115" y="70" width="41" height="1" fill="black" fill-opacity="0.2"/>
<rect x="115" y="21" width="41" height="47" fill="#EDDEB4"/>
<rect x="115" y="21" width="41" height="41" fill="#A24646"/>
<rect width="3" height="52" transform="matrix(-1 0 0 1 159 17)" fill="#A24646"/>
<rect x="115" y="61" width="41" height="1" fill="black" fill-opacity="0.2"/>
<rect x="115" y="60" width="41" height="2" fill="black" fill-opacity="0.2"/>
<rect width="1" height="7" transform="matrix(-1 0 0 1 157 61)" fill="black" fill-opacity="0.2"/>
<rect width="1" height="39" transform="matrix(-1 0 0 1 157 19)" fill="black" fill-opacity="0.2"/>
<rect x="116" y="66" width="38" height="1" fill="black" fill-opacity="0.2"/>
<rect x="119" y="63" width="35" height="1" fill="black" fill-opacity="0.2"/>
<rect x="120" y="19" width="30" height="38" fill="black" fill-opacity="0.2"/>
<rect x="58" y="15" width="41" height="56" fill="#8AA246"/>
<rect x="58" y="70" width="41" height="1" fill="black" fill-opacity="0.2"/>
<rect x="58" y="21" width="41" height="47" fill="#EDDEB4"/>
<rect x="58" y="21" width="41" height="41" fill="#8AA246"/>
<rect width="3" height="52" transform="matrix(-1 0 0 1 102 17)" fill="#8AA246"/>
<rect x="58" y="61" width="41" height="1" fill="black" fill-opacity="0.2"/>
<rect x="58" y="60" width="41" height="2" fill="black" fill-opacity="0.2"/>
<rect width="1" height="7" transform="matrix(-1 0 0 1 100 61)" fill="black" fill-opacity="0.2"/>
<rect width="1" height="39" transform="matrix(-1 0 0 1 100 19)" fill="black" fill-opacity="0.2"/>
<rect x="59" y="66" width="38" height="1" fill="black" fill-opacity="0.2"/>
<rect x="62" y="63" width="35" height="1" fill="black" fill-opacity="0.2"/>
<rect x="63" y="19" width="30" height="38" fill="black" fill-opacity="0.2"/>
<rect x="55" y="15" width="3" height="57" fill="black" fill-opacity="0.2"/>
<rect width="41" height="3" transform="matrix(1 0 0 -1 58 74)" fill="black" fill-opacity="0.2"/>
<rect width="41" height="3" transform="matrix(1 0 0 -1 115 74)" fill="black" fill-opacity="0.2"/>
<rect width="3" height="3" transform="matrix(1 0 0 -1 156 72)" fill="black" fill-opacity="0.2"/>
<rect x="102" y="72" width="3" height="3" transform="rotate(180 102 72)" fill="black" fill-opacity="0.2"/>
<rect x="102" y="17" width="3" height="3" transform="rotate(180 102 17)" fill="black" fill-opacity="0.2"/>
<rect x="99" y="15" width="41" height="3" transform="rotate(180 99 15)" fill="black" fill-opacity="0.2"/>
<rect x="105" y="70" width="3" height="54" transform="rotate(180 105 70)" fill="black" fill-opacity="0.2"/>
<rect x="112" y="15" width="3" height="57" fill="black" fill-opacity="0.2"/>
<rect x="159" y="17" width="3" height="3" transform="rotate(180 159 17)" fill="black" fill-opacity="0.2"/>
<rect x="156" y="15" width="41" height="3" transform="rotate(180 156 15)" fill="black" fill-opacity="0.2"/>
<rect x="162" y="70" width="3" height="54" transform="rotate(180 162 70)" fill="black" fill-opacity="0.2"/>
<rect x="254" y="71" width="3" height="57" transform="rotate(180 254 71)" fill="black" fill-opacity="0.2"/>
<rect width="3" height="3" transform="matrix(-1 0 0 1 251 11)" fill="black" fill-opacity="0.2"/>
<rect width="3" height="3" transform="matrix(-1 0 0 1 248 10)" fill="black" fill-opacity="0.2"/>
<rect width="3" height="3" transform="matrix(-1 0 0 1 245 9)" fill="black" fill-opacity="0.2"/>
<rect width="4" height="3" transform="matrix(-1 0 0 1 242 8)" fill="black" fill-opacity="0.2"/>
<rect width="4" height="3" transform="matrix(-1 0 0 1 238 7)" fill="black" fill-opacity="0.2"/>
<rect width="5" height="3" transform="matrix(-1 0 0 1 224 8)" fill="black" fill-opacity="0.2"/>
<rect width="2" height="3" transform="matrix(-1 0 0 1 219 9)" fill="black" fill-opacity="0.2"/>
<rect width="2" height="3" transform="matrix(-1 0 0 1 217 10)" fill="black" fill-opacity="0.2"/>
<rect width="4" height="3" transform="matrix(-1 0 0 1 215 11)" fill="black" fill-opacity="0.2"/>
<rect width="3" height="3" transform="matrix(-1 0 0 1 211 10)" fill="black" fill-opacity="0.2"/>
<rect width="3" height="3" transform="matrix(-1 0 0 1 208 9)" fill="black" fill-opacity="0.2"/>
<rect width="4" height="3" transform="matrix(-1 0 0 1 205 8)" fill="black" fill-opacity="0.2"/>
<rect width="4" height="3" transform="matrix(-1 0 0 1 201 7)" fill="black" fill-opacity="0.2"/>
<rect width="10" height="3" transform="matrix(-1 0 0 1 197 6)" fill="black" fill-opacity="0.2"/>
<rect width="5" height="3" transform="matrix(-1 0 0 1 187 8)" fill="black" fill-opacity="0.2"/>
<rect width="2" height="3" transform="matrix(-1 0 0 1 182 9)" fill="black" fill-opacity="0.2"/>
<rect width="2" height="3" transform="matrix(-1 0 0 1 180 10)" fill="black" fill-opacity="0.2"/>
<rect width="7" height="3" transform="matrix(-1 0 0 1 178 11)" fill="black" fill-opacity="0.2"/>
<rect width="3" height="57" transform="matrix(-1 0 0 1 171 14)" fill="black" fill-opacity="0.2"/>
<rect width="10" height="3" transform="matrix(-1 0 0 1 234 6)" fill="black" fill-opacity="0.2"/>
<rect width="80" height="3" transform="matrix(-1 0 0 1 251 71)" fill="black" fill-opacity="0.2"/>
<rect x="169" y="71" width="2" height="2" fill="black" fill-opacity="0.15"/>
<rect x="114" y="72" width="1" height="1" fill="black" fill-opacity="0.15"/>
<rect x="114" y="14" width="1" height="1" fill="black" fill-opacity="0.15"/>
<rect x="102" y="15" width="1" height="1" fill="black" fill-opacity="0.15"/>
<rect x="99" y="13" width="1" height="1" fill="black" fill-opacity="0.15"/>
<rect x="57" y="14" width="1" height="1" fill="black" fill-opacity="0.15"/>
<rect x="57" y="72" width="1" height="1" fill="black" fill-opacity="0.15"/>
<rect x="251" y="71" width="2" height="2" fill="black" fill-opacity="0.15"/>
<rect x="251" y="13" width="1" height="1" fill="black" fill-opacity="0.15"/>
<rect x="170" y="13" width="1" height="1" fill="black" fill-opacity="0.15"/>
</g>
<defs>
<clipPath id="clip0_127_18334">
<rect width="309" height="141" fill="white"/>
</clipPath>
</defs>
</svg>
