<svg width="180" height="162" viewBox="0 0 180 162" fill="none" xmlns="http://www.w3.org/2000/svg">
<g clip-path="url(#clip0_195_22746)">
<rect width="174" height="94" transform="matrix(1 0 0 -1 4 133)" fill="black" fill-opacity="0.2"/>
<rect x="4" y="133" width="174" height="2" fill="black" fill-opacity="0.15"/>
<rect width="2" height="94" transform="matrix(-1 0 0 1 180 39)" fill="black" fill-opacity="0.15"/>
<rect width="2" height="94" transform="matrix(-1 0 0 1 4 39)" fill="black" fill-opacity="0.15"/>
<rect x="178" y="39" width="14" height="2" transform="rotate(180 178 39)" fill="black" fill-opacity="0.15"/>
<rect x="4" y="4" width="160" height="80" fill="#BF650F"/>
<rect x="14" y="84" width="140" height="8" fill="#42444A"/>
<rect width="6" height="45" transform="matrix(-1 0 0 1 14 84)" fill="#42444A"/>
<rect width="6" height="45" transform="matrix(-1 0 0 1 160 84)" fill="#42444A"/>
<rect x="19" y="85" width="130" height="5" fill="black" fill-opacity="0.33"/>
<rect x="19" y="85" width="130" height="2" fill="black" fill-opacity="0.33"/>
<rect width="136" height="4" transform="matrix(1 0 0 -1 16 96)" fill="#42444A"/>
<rect width="140" height="4" transform="matrix(1 0 0 -1 14 116)" fill="#42444A"/>
<rect width="140" height="4" transform="matrix(1 0 0 -1 14 116)" fill="black" fill-opacity="0.33"/>
<rect x="4" y="80" width="160" height="4" fill="black" fill-opacity="0.33"/>
<rect width="1" height="1" transform="matrix(-1 0 0 1 143 15)" fill="black" fill-opacity="0.33"/>
<rect x="28" y="13" width="112" height="6" fill="black" fill-opacity="0.33"/>
<rect x="28" y="13" width="112" height="2" fill="black" fill-opacity="0.33"/>
<rect width="2" height="4" transform="matrix(-1 0 0 1 28 14)" fill="black" fill-opacity="0.33"/>
<rect width="2" height="2" transform="matrix(-1 0 0 1 28 14)" fill="black" fill-opacity="0.33"/>
<rect width="1" height="2" transform="matrix(-1 0 0 1 26 15)" fill="black" fill-opacity="0.33"/>
<rect width="1" height="1" transform="matrix(-1 0 0 1 26 15)" fill="black" fill-opacity="0.33"/>
<rect x="140" y="14" width="2" height="4" fill="black" fill-opacity="0.33"/>
<rect x="140" y="14" width="2" height="2" fill="black" fill-opacity="0.33"/>
<rect x="142" y="15" width="1" height="2" fill="black" fill-opacity="0.33"/>
<rect x="8" y="19" width="152" height="57" fill="black" fill-opacity="0.15"/>
<rect x="21" y="90" width="126" height="3" fill="black" fill-opacity="0.33"/>
<rect width="6" height="2" transform="matrix(1 0 0 -1 8 129)" fill="black" fill-opacity="0.33"/>
<rect width="6" height="4" transform="matrix(1 0 0 -1 154 129)" fill="black" fill-opacity="0.33"/>
<rect width="6" height="2" transform="matrix(1 0 0 -1 154 129)" fill="black" fill-opacity="0.33"/>
<rect width="6" height="4" transform="matrix(1 0 0 -1 8 129)" fill="black" fill-opacity="0.33"/>
<rect y="4" width="4" height="80" fill="#3B3C3E"/>
<rect x="4" width="160" height="4" fill="#3B3C3E"/>
<rect x="164" y="4" width="4" height="80" fill="#3B3C3E"/>
<rect x="4" y="84" width="4" height="45" fill="#3B3C3E"/>
<rect width="14" height="4" transform="matrix(1 0 0 -1 4 133)" fill="#3B3C3E"/>
<rect width="4" height="13" transform="matrix(1 0 0 -1 14 129)" fill="#3B3C3E"/>
<rect width="4" height="45" transform="matrix(-1 0 0 1 164 84)" fill="#3B3C3E"/>
<rect x="164" y="133" width="14" height="4" transform="rotate(180 164 133)" fill="#3B3C3E"/>
<rect x="154" y="129" width="4" height="13" transform="rotate(180 154 129)" fill="#3B3C3E"/>
<rect width="132" height="4" transform="matrix(1 0 0 -1 18 120)" fill="#3B3C3E"/>
<rect width="2.8" height="1.4" transform="matrix(1 0 0 -1 76.2001 124.4)" fill="#42444A"/>
<rect width="1.4" height="1.4" transform="matrix(1 0 0 -1 77.6 124.4)" fill="black" fill-opacity="0.15"/>
<rect width="2.8" height="1.4" transform="matrix(1 0 0 -1 76.2001 155.2)" fill="#42444A"/>
<rect width="1.4" height="1.4" transform="matrix(1 0 0 -1 77.6 155.2)" fill="black" fill-opacity="0.15"/>
<rect x="63" y="135" width="72" height="22.9091" fill="black" fill-opacity="0.15"/>
<rect width="1" height="21.2727" transform="matrix(-1 0 0 1 63 135.818)" fill="black" fill-opacity="0.15"/>
<rect width="1" height="21.2727" transform="matrix(-1 0 0 1 136 135.818)" fill="black" fill-opacity="0.15"/>
<rect width="73" height="3.27273" transform="matrix(1 0 0 -1 63 162)" fill="black" fill-opacity="0.15"/>
<rect x="63" y="161.182" width="1" height="1.63636" transform="rotate(180 63 161.182)" fill="black" fill-opacity="0.15"/>
<rect x="137" y="161.182" width="1" height="1.63636" transform="rotate(180 137 161.182)" fill="black" fill-opacity="0.15"/>
<rect x="119.113" y="137" width="5.6" height="39.6261" transform="rotate(90 119.113 137)" fill="#42444A"/>
<rect width="2.8" height="1.88696" transform="matrix(0 1 1 0 119.113 138.4)" fill="#42444A"/>
<rect width="1.4" height="1.88696" transform="matrix(0 1 1 0 119.113 139.8)" fill="black" fill-opacity="0.15"/>
<rect width="2.8" height="1.88696" transform="matrix(0 1 1 0 77.6 138.4)" fill="#42444A"/>
<rect width="1.4" height="1.88696" transform="matrix(0 1 1 0 77.6 139.8)" fill="black" fill-opacity="0.15"/>
<rect x="119.113" y="139.8" width="2.8" height="39.6261" transform="rotate(90 119.113 139.8)" fill="black" fill-opacity="0.15"/>
<rect x="118.2" y="124.4" width="5.6" height="29.4" fill="#42444A"/>
<rect width="2.8" height="1.4" transform="matrix(1 0 0 -1 119.6 124.4)" fill="#42444A"/>
<rect width="1.4" height="1.4" transform="matrix(1 0 0 -1 121 124.4)" fill="black" fill-opacity="0.15"/>
<rect width="2.8" height="1.4" transform="matrix(1 0 0 -1 119.6 155.2)" fill="#42444A"/>
<rect width="1.4" height="1.4" transform="matrix(1 0 0 -1 121 155.2)" fill="black" fill-opacity="0.15"/>
<rect x="121" y="124.4" width="2.8" height="29.4" fill="black" fill-opacity="0.15"/>
<rect x="75" y="124.4" width="5.6" height="29.4" fill="#42444A"/>
<rect width="2.8" height="1.4" transform="matrix(1 0 0 -1 76.3999 124.4)" fill="#42444A"/>
<rect width="1.4" height="1.4" transform="matrix(1 0 0 -1 77.7999 124.4)" fill="black" fill-opacity="0.15"/>
<rect width="2.8" height="1.4" transform="matrix(1 0 0 -1 76.3999 155.2)" fill="#42444A"/>
<rect width="1.4" height="1.4" transform="matrix(1 0 0 -1 77.7999 155.2)" fill="black" fill-opacity="0.15"/>
<rect x="77.7999" y="124.4" width="2.8" height="29.4" fill="black" fill-opacity="0.15"/>
<rect x="66.4" y="104" width="65.8" height="26.6" fill="#BF650F"/>
<rect x="66.4" y="104" width="65.8" height="26.6" fill="black" fill-opacity="0.15"/>
<rect width="60.2" height="2.8" transform="matrix(1 0 0 -1 69.2 133.4)" fill="#BF650F"/>
<rect width="60.2" height="2.8" transform="matrix(1 0 0 -1 69.2 133.4)" fill="black" fill-opacity="0.33"/>
<rect width="9.8" height="4.2" transform="matrix(1 0 0 -1 122.4 130.6)" fill="black" fill-opacity="0.33"/>
<rect width="8.4" height="4.2" transform="matrix(1 0 0 -1 66.4 130.6)" fill="black" fill-opacity="0.33"/>
<rect x="122.4" y="130.6" width="47.6" height="2.8" transform="rotate(180 122.4 130.6)" fill="black" fill-opacity="0.33"/>
<rect x="62.2" y="69" width="75.6" height="43.4" fill="#BF650F"/>
<rect x="62.2" y="73.2002" width="75.6" height="39.2" fill="black" fill-opacity="0.33"/>
<rect x="79" y="101.2" width="5.6" height="29.4" fill="#42444A"/>
<rect width="2.8" height="1.4" transform="matrix(1 0 0 -1 80.4 101.2)" fill="#42444A"/>
<rect width="1.4" height="1.4" transform="matrix(1 0 0 -1 81.7999 101.2)" fill="black" fill-opacity="0.15"/>
<rect width="2.8" height="1.4" transform="matrix(1 0 0 -1 80.4 132)" fill="#42444A"/>
<rect width="1.4" height="1.4" transform="matrix(1 0 0 -1 81.7999 132)" fill="black" fill-opacity="0.15"/>
<rect x="81.7999" y="101.2" width="2.8" height="29.4" fill="black" fill-opacity="0.15"/>
<rect x="114" y="101.2" width="5.6" height="29.4" fill="#42444A"/>
<rect width="2.8" height="1.4" transform="matrix(1 0 0 -1 115.4 101.2)" fill="#42444A"/>
<rect width="1.4" height="1.4" transform="matrix(1 0 0 -1 116.8 101.2)" fill="black" fill-opacity="0.15"/>
<rect width="2.8" height="1.4" transform="matrix(1 0 0 -1 115.4 132)" fill="#42444A"/>
<rect width="1.4" height="1.4" transform="matrix(1 0 0 -1 116.8 132)" fill="black" fill-opacity="0.15"/>
<rect x="116.8" y="101.2" width="2.8" height="29.4" fill="black" fill-opacity="0.15"/>
<rect width="4.2" height="39.2" transform="matrix(-1 0 0 1 62.2 71.7998)" fill="#BF650F"/>
<rect width="4.2" height="39.2" transform="matrix(-1 0 0 1 62.2 71.7998)" fill="#BF650F"/>
<rect width="4.2" height="36.4" transform="matrix(-1 0 0 1 62.2 74.6001)" fill="black" fill-opacity="0.33"/>
<rect width="4.2" height="39.2" transform="matrix(-1 0 0 1 142 71.7998)" fill="#BF650F"/>
<rect width="4.2" height="36.4" transform="matrix(-1 0 0 1 142 74.6001)" fill="black" fill-opacity="0.33"/>
</g>
<defs>
<clipPath id="clip0_195_22746">
<rect width="180" height="162" fill="white"/>
</clipPath>
</defs>
</svg>
