<svg width="386" height="158" viewBox="0 0 386 158" fill="none" xmlns="http://www.w3.org/2000/svg">
<rect width="253" height="18" transform="matrix(1 0 0 -1 8 148)" fill="#BF650F"/>
<rect width="374" height="24" transform="matrix(1 0 0 -1 6 154)" fill="#BF650F"/>
<rect x="17" y="13" width="352" height="117" fill="#32404C"/>
<rect width="378" height="9" transform="matrix(1 0 0 -1 4 13)" fill="#BF650F"/>
<rect width="9" height="124" transform="matrix(1 0 0 -1 8 137)" fill="#8B401D"/>
<rect x="8" y="13" width="4" height="124" fill="black" fill-opacity="0.37"/>
<rect x="17" y="13" width="4" height="117" fill="#292929" fill-opacity="0.37"/>
<rect x="363" y="13" width="6" height="117" fill="#292929" fill-opacity="0.37"/>
<rect x="17" y="13" width="352" height="6" fill="#292929" fill-opacity="0.37"/>
<rect x="17" y="124" width="352" height="6" fill="#292929" fill-opacity="0.37"/>
<rect x="4" y="13" width="4" height="117" fill="#3B3C3E"/>
<rect y="4" width="4" height="9" fill="#3B3C3E"/>
<rect x="2" y="130" width="4" height="24" fill="#3B3C3E"/>
<rect x="6" y="154" width="374" height="4" fill="#3B3C3E"/>
<rect x="4" width="378" height="4" fill="#3B3C3E"/>
<rect width="4" height="24" transform="matrix(-1 0 0 1 384 130)" fill="#3B3C3E"/>
<rect x="4" y="9" width="378" height="4" fill="#292929" fill-opacity="0.37"/>
<rect x="6" y="144" width="374" height="10" fill="#292929" fill-opacity="0.37"/>
<rect x="25" y="131" width="4" height="4" fill="#E5E5E5"/>
<rect width="1" height="2" transform="matrix(-1 0 0 1 25 132)" fill="#E5E5E5"/>
<rect x="29" y="132" width="4" height="4" fill="#E5E5E5"/>
<rect x="33" y="133" width="4" height="4" fill="#E5E5E5"/>
<rect x="37" y="134" width="4" height="4" fill="#E5E5E5"/>
<rect x="39" y="134" width="2" height="4" fill="#B4C3FF"/>
<rect x="38" y="135" width="2" height="2" fill="#B4C3FF"/>
<rect x="24" y="134" width="1" height="1" fill="#FDFDFD" fill-opacity="0.37"/>
<rect x="24" y="131" width="1" height="1" fill="#FDFDFD" fill-opacity="0.37"/>
<rect x="23" y="131" width="1" height="4" fill="#FDFDFD" fill-opacity="0.37"/>
<rect x="25" y="135" width="4" height="1" fill="#FDFDFD" fill-opacity="0.37"/>
<rect x="29" y="136" width="4" height="1" fill="#FDFDFD" fill-opacity="0.37"/>
<rect x="33" y="137" width="4" height="1" fill="#FDFDFD" fill-opacity="0.37"/>
<rect x="37" y="138" width="4" height="1" fill="#FDFDFD" fill-opacity="0.37"/>
<rect x="37" y="133" width="4" height="1" fill="#FDFDFD" fill-opacity="0.37"/>
<rect x="33" y="132" width="4" height="1" fill="#FDFDFD" fill-opacity="0.37"/>
<rect x="29" y="131" width="4" height="1" fill="#FDFDFD" fill-opacity="0.37"/>
<rect x="25" y="130" width="4" height="1" fill="#FDFDFD" fill-opacity="0.37"/>
<rect x="41" y="133" width="1" height="6" fill="#FDFDFD" fill-opacity="0.37"/>
<path d="M152 91.4199V45.3595H191.48V51.9396H198.06V71.6798H184.9V78.2598H191.48V84.8399H198.06V91.4199H178.32V84.8399H171.74V78.2598H165.16V91.4199H152ZM165.16 71.6798H178.32V65.0997H184.9V51.9396H165.16V71.6798ZM204.64 91.4199V45.3595H244.121V51.9396H250.701V71.6798H244.121V78.2598H217.801V91.4199H204.64ZM217.801 71.6798H237.541V51.9396H217.801V71.6798ZM270.441 91.4199V84.8399H263.861V78.2598H257.281V58.5197H263.861V51.9396H270.441V45.3595H303.341V51.9396H277.021V58.5197H270.441V78.2598H277.021V84.8399H290.181V71.6798H283.601V65.0997H303.341V91.4199H270.441ZM323.082 78.2598V45.3595H342.822V65.0997H336.242V78.2598H323.082ZM323.082 91.4199V84.8399H336.242V91.4199H323.082Z" fill="#E5E5E5"/>
<path d="M41.2489 67.7511V64.5022H38V61.2533H44.4978V64.5022H54.2445V58.0044H41.2489V54.7555H38V48.2577H41.2489V45.0088H57.4934V48.2577H60.7423V51.5066H54.2445V48.2577H44.4978V54.7555H57.4934V58.0044H60.7423V64.5022H57.4934V67.7511H41.2489ZM63.9912 67.7511V45.0088H86.7335V48.2577H70.489V54.7555H83.4846V58.0044H70.489V64.5022H86.7335V67.7511H63.9912ZM89.9824 67.7511V45.0088H96.4802V48.2577H99.7291V51.5066H102.978V54.7555H106.227V45.0088H112.725V67.7511H106.227V61.2533H102.978V58.0044H99.7291V54.7555H96.4802V67.7511H89.9824ZM115.974 67.7511V51.5066H119.223V48.2577H122.471V45.0088H132.218V48.2577H135.467V51.5066H138.716V67.7511H132.218V61.2533H122.471V67.7511H115.974ZM122.471 58.0044H132.218V51.5066H128.969V48.2577H125.72V51.5066H122.471V58.0044Z" fill="#E5E5E5"/>
<path d="M44.1183 77.6073V76.6027H43.1137V75.5981H42.1091V74.5935H41.1045V70.5751H43.1137V73.5889H44.1183V74.5935H45.1229V73.5889H46.1275V70.5751H48.1367V74.5935H47.1321V75.5981H46.1275V76.6027H45.1229V77.6073H44.1183ZM49.1414 77.6073V70.5751H56.1736V71.5797H51.1506V73.5889H55.169V74.5935H51.1506V76.6027H56.1736V77.6073H49.1414ZM57.1782 77.6073V70.5751H63.2059V71.5797H64.2105V74.5935H62.2012V75.5981H63.2059V76.6027H64.2105V77.6073H61.1966V76.6027H60.192V75.5981H59.1874V77.6073H57.1782ZM59.1874 74.5935H61.1966V73.5889H62.2012V71.5797H59.1874V74.5935ZM66.2197 77.6073V76.6027H65.2151V75.5981H67.2243V76.6027H70.2381V74.5935H66.2197V73.5889H65.2151V71.5797H66.2197V70.5751H71.2427V71.5797H72.2473V72.5843H70.2381V71.5797H67.2243V73.5889H71.2427V74.5935H72.2473V76.6027H71.2427V77.6073H66.2197ZM74.2565 77.6073V76.6027H76.2657V71.5797H74.2565V70.5751H80.2842V71.5797H78.275V76.6027H80.2842V77.6073H74.2565ZM82.2934 77.6073V76.6027H81.2888V71.5797H82.2934V70.5751H87.3164V71.5797H88.321V76.6027H87.3164V77.6073H82.2934ZM83.298 76.6027H86.3118V71.5797H83.298V76.6027ZM89.3256 77.6073V70.5751H91.3349V71.5797H92.3395V72.5843H93.3441V73.5889H94.3487V70.5751H96.3579V77.6073H94.3487V75.5981H93.3441V74.5935H92.3395V73.5889H91.3349V77.6073H89.3256ZM108.413 77.6073V71.5797H106.404V70.5751H112.432V71.5797H110.422V77.6073H108.413ZM113.436 77.6073V70.5751H120.468V71.5797H115.445V73.5889H119.464V74.5935H115.445V76.6027H120.468V77.6073H113.436ZM122.478 77.6073V76.6027H121.473V75.5981H123.482V76.6027H126.496V74.5935H122.478V73.5889H121.473V71.5797H122.478V70.5751H127.501V71.5797H128.505V72.5843H126.496V71.5797H123.482V73.5889H127.501V74.5935H128.505V76.6027H127.501V77.6073H122.478ZM132.524 77.6073V71.5797H130.515V70.5751H136.542V71.5797H134.533V77.6073H132.524Z" fill="#E5E5E5"/>
<path d="M71.3877 104.463L71.1776 102.061L75.9814 101.641L75.1408 92.0333L72.7389 92.2435L72.5288 89.8416L74.9307 89.6314L74.7205 87.2296L79.5243 86.8093L80.7851 101.221L85.5889 100.8L85.799 103.202L71.3877 104.463ZM87.4323 103.059L87.012 98.2555L91.8158 97.8353L92.2361 102.639L87.4323 103.059ZM101.075 101.866L100.865 99.4638L98.463 99.674L98.2529 97.2721L95.851 97.4822L95.2206 90.2766L97.6224 90.0664L97.4123 87.6646L99.8142 87.4544L99.6041 85.0525L106.81 84.4221L107.02 86.824L109.422 86.6139L109.632 89.0158L112.034 88.8056L112.664 96.0113L110.262 96.2214L110.472 98.6233L108.071 98.8334L108.281 101.235L101.075 101.866ZM103.267 99.2537L108.071 98.8334L107.23 89.2259L104.828 89.436L104.618 87.0341L99.8142 87.4544L100.655 97.062L103.057 96.8518L103.267 99.2537Z" fill="#E5E5E5"/>
<rect x="67.4868" y="85.7391" width="47.3433" height="1.55224" transform="rotate(-5 67.4868 85.7391)" fill="#E5E5E5"/>
<rect x="69.4482" y="108.161" width="47.3433" height="1.55224" transform="rotate(-5 69.4482 108.161)" fill="#E5E5E5"/>
<rect x="114.785" y="83.1592" width="1.55224" height="20.9552" transform="rotate(-5 114.785 83.1592)" fill="#E5E5E5"/>
<rect x="66.0757" y="87.4208" width="1.55224" height="20.9552" transform="rotate(-5 66.0757 87.4208)" fill="#E5E5E5"/>
<rect x="335" y="119" width="31" height="6" fill="#292929" fill-opacity="0.37"/>
<rect x="335" y="125" width="31" height="9" fill="#CC8037"/>
<rect width="31" height="3" transform="matrix(1 0 0 -1 335 137)" fill="#A5580F"/>
<rect width="31" height="3" transform="matrix(1 0 0 -1 335 140)" fill="#7B7B7B"/>
<rect width="9" height="124" transform="matrix(1 0 0 -1 369 137)" fill="#8B401D"/>
<rect width="4" height="9" transform="matrix(-1 0 0 1 386 4)" fill="#3B3C3E"/>
<rect width="4" height="117" transform="matrix(-1 0 0 1 382 13)" fill="#3B3C3E"/>
<rect x="369" y="13" width="4" height="124" fill="#292929" fill-opacity="0.37"/>
</svg>
