<svg width="1500" height="1500" viewBox="0 0 1500 1500" fill="none" xmlns="http://www.w3.org/2000/svg">
<rect x="0.075" y="0.075" width="1499.85" height="1499.85" fill="#496D80"/>
<rect x="0.075" y="0.075" width="1499.85" height="1499.85" stroke="#6570BE" stroke-width="0.15"/>
<rect x="49.2" y="67.7998" width="147.3" height="90.3" fill="#D9D9D9"/>
<rect x="808.8" y="67.7998" width="596.85" height="90.3" fill="#D9D9D9"/>
<rect x="49.2" y="284.7" width="147.3" height="60" fill="#D9D9D9"/>
<rect x="49.2" y="801.45" width="439.2" height="90.3" fill="#D9D9D9"/>
<rect x="997.8" y="1248.9" width="215.25" height="48.9" fill="#D9D9D9"/>
<rect x="862.2" y="1210.2" width="135.6" height="126.3" fill="#D9D9D9"/>
<rect x="1167.75" y="820.05" width="135.6" height="126.3" fill="#D9D9D9"/>
<rect x="1022.1" y="284.7" width="235.95" height="60" fill="#D9D9D9"/>
<rect x="272.55" y="1366.5" width="1133.1" height="90.3" fill="#D9D9D9"/>
<rect width="264.75" height="259.8" transform="matrix(-1 0 0 1 359.1 999.3)" fill="#D9D9D9"/>
<rect width="264.75" height="259.8" transform="matrix(-1 0 0 1 1500 0)" fill="#D9D9D9"/>
<rect x="782.1" y="1180.2" width="276.6" height="90.3" transform="rotate(90 782.1 1180.2)" fill="#D9D9D9"/>
<rect x="488.4" y="557.25" width="618.15" height="622.95" fill="#D9D9D9"/>
<rect x="139.5" y="344.7" width="456.75" height="90.3" transform="rotate(90 139.5 344.7)" fill="#D9D9D9"/>
<rect x="1022.1" y="284.7" width="272.55" height="60" transform="rotate(90 1022.1 284.7)" fill="#D9D9D9"/>
<rect x="1258.05" y="344.7" width="953.1" height="45" transform="rotate(90 1258.05 344.7)" fill="#D9D9D9"/>
<rect x="304.5" y="528.9" width="272.55" height="90.3" transform="rotate(90 304.5 528.9)" fill="#D9D9D9"/>
<rect x="441.6" y="375" width="272.55" height="90.3" transform="rotate(90 441.6 375)" fill="#D9D9D9"/>
<rect x="649.65" y="260.7" width="129.3" height="90.3" transform="rotate(180 649.65 260.7)" fill="#D9D9D9"/>
<rect x="808.8" y="67.7998" width="489.45" height="90.3" transform="rotate(90 808.8 67.7998)" fill="#D9D9D9"/>
<rect x="196.5" y="67.7998" width="323.85" height="307.2" fill="#D9D9D9"/>
<rect width="1197" height="90.3" transform="matrix(0 1 1 0 1335.3 259.8)" fill="#D9D9D9"/>
</svg>
