<svg width="96" height="96" viewBox="0 0 96 96" fill="none" xmlns="http://www.w3.org/2000/svg">
<g clip-path="url(#clip0_79_17453)">
<path d="M0 0L16 16V80L0 96V0Z" fill="#878787"/>
<rect x="2" y="10" width="2" height="2" fill="#3B3C3E" fill-opacity="0.3"/>
<rect x="6" y="12" width="1" height="1" fill="#3B3C3E" fill-opacity="0.3"/>
<rect x="4" y="14" width="2" height="2" fill="#3B3C3E" fill-opacity="0.3"/>
<rect x="2" y="22" width="2" height="2" fill="#3B3C3E" fill-opacity="0.3"/>
<rect x="6" y="24" width="1" height="1" fill="#3B3C3E" fill-opacity="0.3"/>
<rect x="4" y="26" width="2" height="2" fill="#3B3C3E" fill-opacity="0.3"/>
<rect x="9" y="33" width="2" height="2" fill="#3B3C3E" fill-opacity="0.3"/>
<rect x="13" y="35" width="1" height="1" fill="#3B3C3E" fill-opacity="0.3"/>
<rect x="11" y="37" width="2" height="2" fill="#3B3C3E" fill-opacity="0.3"/>
<rect width="2" height="2" transform="matrix(-1 0 0 1 8 46)" fill="#3B3C3E" fill-opacity="0.3"/>
<rect width="1" height="1" transform="matrix(-1 0 0 1 4 48)" fill="#3B3C3E" fill-opacity="0.3"/>
<rect width="2" height="2" transform="matrix(-1 0 0 1 6 50)" fill="#3B3C3E" fill-opacity="0.3"/>
<rect width="2" height="2" transform="matrix(-1 0 0 1 12 56)" fill="#3B3C3E" fill-opacity="0.3"/>
<rect width="1" height="1" transform="matrix(-1 0 0 1 8 58)" fill="#3B3C3E" fill-opacity="0.3"/>
<rect width="2" height="2" transform="matrix(-1 0 0 1 10 60)" fill="#3B3C3E" fill-opacity="0.3"/>
<rect width="2" height="2" transform="matrix(-1 0 0 1 9 38)" fill="#3B3C3E" fill-opacity="0.3"/>
<rect width="1" height="1" transform="matrix(-1 0 0 1 5 40)" fill="#3B3C3E" fill-opacity="0.3"/>
<rect width="2" height="2" transform="matrix(-1 0 0 1 7 42)" fill="#3B3C3E" fill-opacity="0.3"/>
<rect width="2" height="2" transform="matrix(-1 0 0 1 14 19)" fill="#3B3C3E" fill-opacity="0.3"/>
<rect width="1" height="1" transform="matrix(-1 0 0 1 10 21)" fill="#3B3C3E" fill-opacity="0.3"/>
<rect width="2" height="2" transform="matrix(-1 0 0 1 12 23)" fill="#3B3C3E" fill-opacity="0.3"/>
<rect width="2" height="2" transform="matrix(-1 0 0 1 15 45)" fill="#3B3C3E" fill-opacity="0.3"/>
<rect width="1" height="1" transform="matrix(-1 0 0 1 11 47)" fill="#3B3C3E" fill-opacity="0.3"/>
<rect width="2" height="2" transform="matrix(-1 0 0 1 13 49)" fill="#3B3C3E" fill-opacity="0.3"/>
<rect width="2" height="2" transform="matrix(-1 0 0 1 7 63)" fill="#3B3C3E" fill-opacity="0.3"/>
<rect width="1" height="1" transform="matrix(-1 0 0 1 3 65)" fill="#3B3C3E" fill-opacity="0.3"/>
<rect width="2" height="2" transform="matrix(-1 0 0 1 5 67)" fill="#3B3C3E" fill-opacity="0.3"/>
<rect width="2" height="2" transform="matrix(-1 0 0 1 14 67)" fill="#3B3C3E" fill-opacity="0.3"/>
<rect width="1" height="1" transform="matrix(-1 0 0 1 10 69)" fill="#3B3C3E" fill-opacity="0.3"/>
<rect width="2" height="2" transform="matrix(-1 0 0 1 12 71)" fill="#3B3C3E" fill-opacity="0.3"/>
<rect width="2" height="2" transform="matrix(-1 0 0 1 8 74)" fill="#3B3C3E" fill-opacity="0.3"/>
<rect width="1" height="1" transform="matrix(-1 0 0 1 4 76)" fill="#3B3C3E" fill-opacity="0.3"/>
<rect width="2" height="2" transform="matrix(-1 0 0 1 6 78)" fill="#3B3C3E" fill-opacity="0.3"/>
<rect width="2" height="2" transform="matrix(-1 0 0 1 13 77)" fill="#3B3C3E" fill-opacity="0.3"/>
<rect width="1" height="1" transform="matrix(-1 0 0 1 9 79)" fill="#3B3C3E" fill-opacity="0.3"/>
<rect width="2" height="2" transform="matrix(-1 0 0 1 11 81)" fill="#3B3C3E" fill-opacity="0.3"/>
</g>
<g clip-path="url(#clip1_79_17453)">
<path d="M96 0L80 16V80L96 96V0Z" fill="#878787"/>
<rect width="2" height="2" transform="matrix(-1 0 0 1 94 10)" fill="#3B3C3E" fill-opacity="0.3"/>
<rect width="1" height="1" transform="matrix(-1 0 0 1 90 12)" fill="#3B3C3E" fill-opacity="0.3"/>
<rect width="2" height="2" transform="matrix(-1 0 0 1 92 14)" fill="#3B3C3E" fill-opacity="0.3"/>
<rect width="2" height="2" transform="matrix(-1 0 0 1 94 22)" fill="#3B3C3E" fill-opacity="0.3"/>
<rect width="1" height="1" transform="matrix(-1 0 0 1 90 24)" fill="#3B3C3E" fill-opacity="0.3"/>
<rect width="2" height="2" transform="matrix(-1 0 0 1 92 26)" fill="#3B3C3E" fill-opacity="0.3"/>
<rect width="2" height="2" transform="matrix(-1 0 0 1 87 33)" fill="#3B3C3E" fill-opacity="0.3"/>
<rect width="1" height="1" transform="matrix(-1 0 0 1 83 35)" fill="#3B3C3E" fill-opacity="0.3"/>
<rect width="2" height="2" transform="matrix(-1 0 0 1 85 37)" fill="#3B3C3E" fill-opacity="0.3"/>
<rect x="88" y="46" width="2" height="2" fill="#3B3C3E" fill-opacity="0.3"/>
<rect x="92" y="48" width="1" height="1" fill="#3B3C3E" fill-opacity="0.3"/>
<rect x="90" y="50" width="2" height="2" fill="#3B3C3E" fill-opacity="0.3"/>
<rect x="84" y="56" width="2" height="2" fill="#3B3C3E" fill-opacity="0.3"/>
<rect x="88" y="58" width="1" height="1" fill="#3B3C3E" fill-opacity="0.3"/>
<rect x="86" y="60" width="2" height="2" fill="#3B3C3E" fill-opacity="0.3"/>
<rect x="87" y="38" width="2" height="2" fill="#3B3C3E" fill-opacity="0.3"/>
<rect x="91" y="40" width="1" height="1" fill="#3B3C3E" fill-opacity="0.3"/>
<rect x="89" y="42" width="2" height="2" fill="#3B3C3E" fill-opacity="0.3"/>
<rect x="82" y="19" width="2" height="2" fill="#3B3C3E" fill-opacity="0.3"/>
<rect x="86" y="21" width="1" height="1" fill="#3B3C3E" fill-opacity="0.3"/>
<rect x="84" y="23" width="2" height="2" fill="#3B3C3E" fill-opacity="0.3"/>
<rect x="81" y="45" width="2" height="2" fill="#3B3C3E" fill-opacity="0.3"/>
<rect x="85" y="47" width="1" height="1" fill="#3B3C3E" fill-opacity="0.3"/>
<rect x="83" y="49" width="2" height="2" fill="#3B3C3E" fill-opacity="0.3"/>
<rect x="89" y="63" width="2" height="2" fill="#3B3C3E" fill-opacity="0.3"/>
<rect x="93" y="65" width="1" height="1" fill="#3B3C3E" fill-opacity="0.3"/>
<rect x="91" y="67" width="2" height="2" fill="#3B3C3E" fill-opacity="0.3"/>
<rect x="82" y="67" width="2" height="2" fill="#3B3C3E" fill-opacity="0.3"/>
<rect x="86" y="69" width="1" height="1" fill="#3B3C3E" fill-opacity="0.3"/>
<rect x="84" y="71" width="2" height="2" fill="#3B3C3E" fill-opacity="0.3"/>
<rect x="88" y="74" width="2" height="2" fill="#3B3C3E" fill-opacity="0.3"/>
<rect x="92" y="76" width="1" height="1" fill="#3B3C3E" fill-opacity="0.3"/>
<rect x="90" y="78" width="2" height="2" fill="#3B3C3E" fill-opacity="0.3"/>
<rect x="83" y="77" width="2" height="2" fill="#3B3C3E" fill-opacity="0.3"/>
<rect x="87" y="79" width="1" height="1" fill="#3B3C3E" fill-opacity="0.3"/>
<rect x="85" y="81" width="2" height="2" fill="#3B3C3E" fill-opacity="0.3"/>
</g>
<g clip-path="url(#clip2_79_17453)">
<path d="M96 96L80 80H16L0 96H96Z" fill="#909090"/>
<rect width="2" height="2" transform="matrix(0 -1 -1 0 86 94)" fill="#3B3C3E" fill-opacity="0.3"/>
<rect width="1" height="1" transform="matrix(0 -1 -1 0 84 90)" fill="#3B3C3E" fill-opacity="0.3"/>
<rect width="2" height="2" transform="matrix(0 -1 -1 0 82 92)" fill="#3B3C3E" fill-opacity="0.3"/>
<rect width="2" height="2" transform="matrix(0 -1 -1 0 74 94)" fill="#3B3C3E" fill-opacity="0.3"/>
<rect width="1" height="1" transform="matrix(0 -1 -1 0 72 90)" fill="#3B3C3E" fill-opacity="0.3"/>
<rect width="2" height="2" transform="matrix(0 -1 -1 0 70 92)" fill="#3B3C3E" fill-opacity="0.3"/>
<rect width="2" height="2" transform="matrix(0 -1 -1 0 63 87)" fill="#3B3C3E" fill-opacity="0.3"/>
<rect width="1" height="1" transform="matrix(0 -1 -1 0 61 83)" fill="#3B3C3E" fill-opacity="0.3"/>
<rect width="2" height="2" transform="matrix(0 -1 -1 0 59 85)" fill="#3B3C3E" fill-opacity="0.3"/>
<rect x="50" y="88" width="2" height="2" transform="rotate(90 50 88)" fill="#3B3C3E" fill-opacity="0.3"/>
<rect x="48" y="92" width="1" height="1" transform="rotate(90 48 92)" fill="#3B3C3E" fill-opacity="0.3"/>
<rect x="46" y="90" width="2" height="2" transform="rotate(90 46 90)" fill="#3B3C3E" fill-opacity="0.3"/>
<rect x="40" y="84" width="2" height="2" transform="rotate(90 40 84)" fill="#3B3C3E" fill-opacity="0.3"/>
<rect x="38" y="88" width="1" height="1" transform="rotate(90 38 88)" fill="#3B3C3E" fill-opacity="0.3"/>
<rect x="36" y="86" width="2" height="2" transform="rotate(90 36 86)" fill="#3B3C3E" fill-opacity="0.3"/>
<rect x="58" y="87" width="2" height="2" transform="rotate(90 58 87)" fill="#3B3C3E" fill-opacity="0.3"/>
<rect x="56" y="91" width="1" height="1" transform="rotate(90 56 91)" fill="#3B3C3E" fill-opacity="0.3"/>
<rect x="54" y="89" width="2" height="2" transform="rotate(90 54 89)" fill="#3B3C3E" fill-opacity="0.3"/>
<rect x="77" y="82" width="2" height="2" transform="rotate(90 77 82)" fill="#3B3C3E" fill-opacity="0.3"/>
<rect x="75" y="86" width="1" height="1" transform="rotate(90 75 86)" fill="#3B3C3E" fill-opacity="0.3"/>
<rect x="73" y="84" width="2" height="2" transform="rotate(90 73 84)" fill="#3B3C3E" fill-opacity="0.3"/>
<rect x="51" y="81" width="2" height="2" transform="rotate(90 51 81)" fill="#3B3C3E" fill-opacity="0.3"/>
<rect x="49" y="85" width="1" height="1" transform="rotate(90 49 85)" fill="#3B3C3E" fill-opacity="0.3"/>
<rect x="47" y="83" width="2" height="2" transform="rotate(90 47 83)" fill="#3B3C3E" fill-opacity="0.3"/>
<rect x="33" y="89" width="2" height="2" transform="rotate(90 33 89)" fill="#3B3C3E" fill-opacity="0.3"/>
<rect x="31" y="93" width="1" height="1" transform="rotate(90 31 93)" fill="#3B3C3E" fill-opacity="0.3"/>
<rect x="29" y="91" width="2" height="2" transform="rotate(90 29 91)" fill="#3B3C3E" fill-opacity="0.3"/>
<rect x="29" y="82" width="2" height="2" transform="rotate(90 29 82)" fill="#3B3C3E" fill-opacity="0.3"/>
<rect x="27" y="86" width="1" height="1" transform="rotate(90 27 86)" fill="#3B3C3E" fill-opacity="0.3"/>
<rect x="25" y="84" width="2" height="2" transform="rotate(90 25 84)" fill="#3B3C3E" fill-opacity="0.3"/>
<rect x="22" y="88" width="2" height="2" transform="rotate(90 22 88)" fill="#3B3C3E" fill-opacity="0.3"/>
<rect x="20" y="92" width="1" height="1" transform="rotate(90 20 92)" fill="#3B3C3E" fill-opacity="0.3"/>
<rect x="18" y="90" width="2" height="2" transform="rotate(90 18 90)" fill="#3B3C3E" fill-opacity="0.3"/>
<rect x="19" y="83" width="2" height="2" transform="rotate(90 19 83)" fill="#3B3C3E" fill-opacity="0.3"/>
<rect x="17" y="87" width="1" height="1" transform="rotate(90 17 87)" fill="#3B3C3E" fill-opacity="0.3"/>
<rect x="15" y="85" width="2" height="2" transform="rotate(90 15 85)" fill="#3B3C3E" fill-opacity="0.3"/>
</g>
<g clip-path="url(#clip3_79_17453)">
<path d="M96 0L80 16H16L0 0H96Z" fill="#909090"/>
<rect x="86" y="2" width="2" height="2" transform="rotate(90 86 2)" fill="#3B3C3E" fill-opacity="0.3"/>
<rect x="84" y="6" width="1" height="1" transform="rotate(90 84 6)" fill="#3B3C3E" fill-opacity="0.3"/>
<rect x="82" y="4" width="2" height="2" transform="rotate(90 82 4)" fill="#3B3C3E" fill-opacity="0.3"/>
<rect x="74" y="2" width="2" height="2" transform="rotate(90 74 2)" fill="#3B3C3E" fill-opacity="0.3"/>
<rect x="72" y="6" width="1" height="1" transform="rotate(90 72 6)" fill="#3B3C3E" fill-opacity="0.3"/>
<rect x="70" y="4" width="2" height="2" transform="rotate(90 70 4)" fill="#3B3C3E" fill-opacity="0.3"/>
<rect x="63" y="9" width="2" height="2" transform="rotate(90 63 9)" fill="#3B3C3E" fill-opacity="0.3"/>
<rect x="61" y="13" width="1" height="1" transform="rotate(90 61 13)" fill="#3B3C3E" fill-opacity="0.3"/>
<rect x="59" y="11" width="2" height="2" transform="rotate(90 59 11)" fill="#3B3C3E" fill-opacity="0.3"/>
<rect width="2" height="2" transform="matrix(0 -1 -1 0 50 8)" fill="#3B3C3E" fill-opacity="0.3"/>
<rect width="1" height="1" transform="matrix(0 -1 -1 0 48 4)" fill="#3B3C3E" fill-opacity="0.3"/>
<rect width="2" height="2" transform="matrix(0 -1 -1 0 46 6)" fill="#3B3C3E" fill-opacity="0.3"/>
<rect width="2" height="2" transform="matrix(0 -1 -1 0 40 12)" fill="#3B3C3E" fill-opacity="0.3"/>
<rect width="1" height="1" transform="matrix(0 -1 -1 0 38 8)" fill="#3B3C3E" fill-opacity="0.3"/>
<rect width="2" height="2" transform="matrix(0 -1 -1 0 36 10)" fill="#3B3C3E" fill-opacity="0.3"/>
<rect width="2" height="2" transform="matrix(0 -1 -1 0 58 9)" fill="#3B3C3E" fill-opacity="0.3"/>
<rect width="1" height="1" transform="matrix(0 -1 -1 0 56 5)" fill="#3B3C3E" fill-opacity="0.3"/>
<rect width="2" height="2" transform="matrix(0 -1 -1 0 54 7)" fill="#3B3C3E" fill-opacity="0.3"/>
<rect width="2" height="2" transform="matrix(0 -1 -1 0 77 14)" fill="#3B3C3E" fill-opacity="0.3"/>
<rect width="1" height="1" transform="matrix(0 -1 -1 0 75 10)" fill="#3B3C3E" fill-opacity="0.3"/>
<rect width="2" height="2" transform="matrix(0 -1 -1 0 73 12)" fill="#3B3C3E" fill-opacity="0.3"/>
<rect width="2" height="2" transform="matrix(0 -1 -1 0 51 15)" fill="#3B3C3E" fill-opacity="0.3"/>
<rect width="1" height="1" transform="matrix(0 -1 -1 0 49 11)" fill="#3B3C3E" fill-opacity="0.3"/>
<rect width="2" height="2" transform="matrix(0 -1 -1 0 47 13)" fill="#3B3C3E" fill-opacity="0.3"/>
<rect width="2" height="2" transform="matrix(0 -1 -1 0 33 7)" fill="#3B3C3E" fill-opacity="0.3"/>
<rect width="1" height="1" transform="matrix(0 -1 -1 0 31 3)" fill="#3B3C3E" fill-opacity="0.3"/>
<rect width="2" height="2" transform="matrix(0 -1 -1 0 29 5)" fill="#3B3C3E" fill-opacity="0.3"/>
<rect width="2" height="2" transform="matrix(0 -1 -1 0 29 14)" fill="#3B3C3E" fill-opacity="0.3"/>
<rect width="1" height="1" transform="matrix(0 -1 -1 0 27 10)" fill="#3B3C3E" fill-opacity="0.3"/>
<rect width="2" height="2" transform="matrix(0 -1 -1 0 25 12)" fill="#3B3C3E" fill-opacity="0.3"/>
<rect width="2" height="2" transform="matrix(0 -1 -1 0 22 8)" fill="#3B3C3E" fill-opacity="0.3"/>
<rect width="1" height="1" transform="matrix(0 -1 -1 0 20 4)" fill="#3B3C3E" fill-opacity="0.3"/>
<rect width="2" height="2" transform="matrix(0 -1 -1 0 18 6)" fill="#3B3C3E" fill-opacity="0.3"/>
<rect width="2" height="2" transform="matrix(0 -1 -1 0 19 13)" fill="#3B3C3E" fill-opacity="0.3"/>
<rect width="1" height="1" transform="matrix(0 -1 -1 0 17 9)" fill="#3B3C3E" fill-opacity="0.3"/>
<rect width="2" height="2" transform="matrix(0 -1 -1 0 15 11)" fill="#3B3C3E" fill-opacity="0.3"/>
</g>
<rect x="16" y="16" width="64" height="64" fill="black"/>
<defs>
<clipPath id="clip0_79_17453">
<rect width="16" height="96" fill="white"/>
</clipPath>
<clipPath id="clip1_79_17453">
<rect width="16" height="96" fill="white" transform="matrix(-1 0 0 1 96 0)"/>
</clipPath>
<clipPath id="clip2_79_17453">
<rect width="16" height="96" fill="white" transform="matrix(0 -1 -1 0 96 96)"/>
</clipPath>
<clipPath id="clip3_79_17453">
<rect width="16" height="96" fill="white" transform="matrix(0 1 -1 0 96 0)"/>
</clipPath>
</defs>
</svg>
