<svg width="32" height="32" viewBox="0 0 32 32" fill="none" xmlns="http://www.w3.org/2000/svg">
<g clip-path="url(#clip0_67_15633)">
<rect width="11" height="6" transform="matrix(0.121869 0.992546 0.992546 -0.121869 3.1665 19.9722)" fill="#DFDFDF"/>
<rect x="3.28833" y="20.9648" width="9" height="1" transform="rotate(83 3.28833 20.9648)" fill="#DFDFDF"/>
<rect x="2.17395" y="20.0941" width="3" height="1" transform="rotate(83 2.17395 20.0941)" fill="#DFDFDF"/>
<rect x="2.17395" y="20.0941" width="1" height="1" transform="rotate(83 2.17395 20.0941)" fill="#DFDFDF"/>
<rect x="3.14893" y="28.0344" width="3" height="1" transform="rotate(83 3.14893 28.0344)" fill="#DFDFDF"/>
<rect width="2" height="1" transform="matrix(0.121869 0.992546 0.992546 -0.121869 8.12927 19.3629)" fill="#3D3D3D"/>
<rect width="1" height="3" transform="matrix(0.121869 0.992546 0.992546 -0.121869 4.76843 24.813)" fill="#3B3C3E" fill-opacity="0.3"/>
<rect width="2" height="1" transform="matrix(0.121869 0.992546 0.992546 -0.121869 9.22607 28.2958)" fill="#3D3D3D"/>
<rect width="5" height="1" transform="matrix(0.121869 0.992546 0.992546 -0.121869 1.547 23.1936)" fill="#3D3D3D"/>
<rect width="1" height="1" transform="matrix(0.121869 0.992546 0.992546 -0.121869 7.13672 19.4847)" fill="#3D3D3D"/>
<rect width="1" height="1" transform="matrix(0.121869 0.992546 0.992546 -0.121869 5.15161 19.7285)" fill="#3D3D3D"/>
<rect width="1" height="1" transform="matrix(0.121869 0.992546 0.992546 -0.121869 6.37024 29.6539)" fill="#3D3D3D"/>
<rect width="1" height="1" transform="matrix(0.121869 0.992546 0.992546 -0.121869 4.38525 29.8976)" fill="#3D3D3D"/>
<rect width="1" height="1" transform="matrix(0.121869 0.992546 0.992546 -0.121869 3.1665 19.9722)" fill="#3D3D3D"/>
<rect width="1" height="1" transform="matrix(0.121869 0.992546 0.992546 -0.121869 2.29578 21.0866)" fill="#3D3D3D"/>
<rect width="1" height="1" transform="matrix(0.121869 0.992546 0.992546 -0.121869 3.27075 29.027)" fill="#3D3D3D"/>
<rect width="4" height="1" transform="matrix(0.121869 0.992546 0.992546 -0.121869 6.14417 19.6066)" fill="#3B3C3E" fill-opacity="0.3"/>
<rect width="4" height="1" transform="matrix(0.121869 0.992546 0.992546 -0.121869 6.99719 26.5544)" fill="#3B3C3E" fill-opacity="0.3"/>
<rect width="4" height="1" transform="matrix(0.121869 0.992546 0.992546 -0.121869 5.01208 26.7982)" fill="#3B3C3E" fill-opacity="0.3"/>
<rect width="4" height="1" transform="matrix(0.121869 0.992546 0.992546 -0.121869 4.15906 19.8503)" fill="#3B3C3E" fill-opacity="0.3"/>
<rect width="1" height="2" transform="matrix(0.121869 0.992546 0.992546 -0.121869 5.76099 24.6912)" fill="#3B3C3E" fill-opacity="0.3"/>
<rect width="1" height="1" transform="matrix(0.121869 0.992546 0.992546 -0.121869 5.88281 25.6837)" fill="#3B3C3E" fill-opacity="0.3"/>
<rect width="1" height="1" transform="matrix(0.121869 0.992546 0.992546 -0.121869 7.86792 25.44)" fill="#3B3C3E" fill-opacity="0.3"/>
<rect width="1" height="1" transform="matrix(0.121869 0.992546 0.992546 -0.121869 7.62415 23.4549)" fill="#3B3C3E" fill-opacity="0.3"/>
<rect width="1" height="1" transform="matrix(0.121869 0.992546 0.992546 -0.121869 3.89771 25.9275)" fill="#3B3C3E" fill-opacity="0.3"/>
<rect width="1" height="1" transform="matrix(0.121869 0.992546 0.992546 -0.121869 3.65393 23.9424)" fill="#3B3C3E" fill-opacity="0.3"/>
<rect width="1" height="1" transform="matrix(0.121869 0.992546 0.992546 -0.121869 5.63904 23.6986)" fill="#3B3C3E" fill-opacity="0.3"/>
<rect width="3" height="1" transform="matrix(0.121869 0.992546 0.992546 -0.121869 6.26599 20.5991)" fill="#3B3C3E" fill-opacity="0.3"/>
<rect width="3" height="1" transform="matrix(0.121869 0.992546 0.992546 -0.121869 6.99719 26.5544)" fill="#3B3C3E" fill-opacity="0.3"/>
<rect width="3" height="1" transform="matrix(0.121869 0.992546 0.992546 -0.121869 5.01208 26.7982)" fill="#3B3C3E" fill-opacity="0.3"/>
<rect width="3" height="1" transform="matrix(0.121869 0.992546 0.992546 -0.121869 4.28088 20.8429)" fill="#3B3C3E" fill-opacity="0.3"/>
<rect width="3" height="1" transform="matrix(0.121869 0.992546 0.992546 -0.121869 2.29578 21.0866)" fill="#3B3C3E" fill-opacity="0.3"/>
<rect width="2" height="1" transform="matrix(0.121869 0.992546 0.992546 -0.121869 2.41772 22.0792)" fill="#3B3C3E" fill-opacity="0.3"/>
<rect width="3" height="1" transform="matrix(0.121869 0.992546 0.992546 -0.121869 3.0271 27.0419)" fill="#3B3C3E" fill-opacity="0.3"/>
<rect width="2" height="1" transform="matrix(0.121869 0.992546 0.992546 -0.121869 3.0271 27.0419)" fill="#3B3C3E" fill-opacity="0.3"/>
<rect width="1" height="1" transform="matrix(0.121869 0.992546 0.992546 -0.121869 8.35535 29.4102)" fill="#3D3D3D"/>
<rect x="28.0109" y="21.9116" width="2" height="2" transform="rotate(138 28.0109 21.9116)" fill="#DFDFDF"/>
<rect x="28.6799" y="22.6548" width="2" height="1" transform="rotate(138 28.6799 22.6548)" fill="#3D3D3D"/>
<rect x="25.8555" y="22.5067" width="1" height="1" transform="rotate(138 25.8555 22.5067)" fill="#3D3D3D"/>
<rect x="26.5245" y="23.2499" width="1" height="1" transform="rotate(138 26.5245 23.2499)" fill="#3D3D3D"/>
<rect x="27.1937" y="23.993" width="1" height="1" transform="rotate(138 27.1937 23.993)" fill="#3D3D3D"/>
<rect x="26.5985" y="21.8376" width="1" height="1" transform="rotate(138 26.5985 21.8376)" fill="#3B3C3E" fill-opacity="0.3"/>
<rect x="28.6799" y="22.6548" width="1" height="4" transform="rotate(138 28.6799 22.6548)" fill="#3D3D3D"/>
<rect width="9" height="1" transform="matrix(-0.945519 -0.325568 -0.325568 0.945519 18.8173 30.4217)" fill="#3B3C3E"/>
<rect width="9" height="1" transform="matrix(-0.945519 -0.325568 -0.325568 0.945519 19.1428 29.4762)" fill="#DFDFDF"/>
<rect width="11" height="1" transform="matrix(0.945519 0.325568 0.325568 -0.945519 14.8655 14.2544)" fill="#3D3D3D"/>
<rect width="13" height="1" transform="matrix(0.945519 0.325568 0.325568 -0.945519 12.6489 14.5487)" fill="#DFDFDF"/>
<rect width="13" height="1" transform="matrix(0.945519 0.325568 0.325568 -0.945519 8.74207 25.895)" fill="#DFDFDF"/>
<rect width="2" height="1" transform="matrix(0.945519 0.325568 0.325568 -0.945519 8.4165 26.8405)" fill="#3D3D3D"/>
<rect width="2" height="1" transform="matrix(0.945519 0.325568 0.325568 -0.945519 18.8173 30.4217)" fill="#3D3D3D"/>
<rect width="1" height="9" transform="matrix(0.945519 0.325568 0.325568 -0.945519 7.17664 24.2983)" fill="#3D3D3D"/>
<rect width="15" height="11" transform="matrix(0.945519 0.325568 0.325568 -0.945519 8.12219 24.6239)" fill="#DFDFDF"/>
<rect width="2" height="5" transform="matrix(0.945519 0.325568 0.325568 -0.945519 19.4995 25.3686)" fill="#3D3D3D"/>
<rect width="1" height="1" transform="matrix(0.945519 0.325568 0.325568 -0.945519 15.6863 27.2284)" fill="#3B3C3E" fill-opacity="0.3"/>
<rect width="1" height="1" transform="matrix(0.945519 0.325568 0.325568 -0.945519 17.5773 27.8795)" fill="#3B3C3E" fill-opacity="0.3"/>
<rect width="1" height="1" transform="matrix(0.945519 0.325568 0.325568 -0.945519 19.4684 28.5307)" fill="#3B3C3E" fill-opacity="0.3"/>
<rect width="1" height="1" transform="matrix(0.945519 0.325568 0.325568 -0.945519 13.7953 26.5773)" fill="#3B3C3E" fill-opacity="0.3"/>
<rect width="1" height="1" transform="matrix(0.945519 0.325568 0.325568 -0.945519 15.6863 27.2284)" fill="#3B3C3E" fill-opacity="0.3"/>
<rect width="1" height="1" transform="matrix(0.945519 0.325568 0.325568 -0.945519 17.5773 27.8795)" fill="#3B3C3E" fill-opacity="0.3"/>
<rect width="1" height="1" transform="matrix(0.945519 0.325568 0.325568 -0.945519 19.4684 28.5307)" fill="#3B3C3E" fill-opacity="0.3"/>
<rect width="1" height="1" transform="matrix(0.945519 0.325568 0.325568 -0.945519 13.7953 26.5773)" fill="#3B3C3E" fill-opacity="0.3"/>
<rect width="3" height="6" transform="matrix(0.945519 0.325568 0.325568 -0.945519 13.8264 23.4152)" fill="#3B3C3E" fill-opacity="0.3"/>
<rect width="3" height="6" transform="matrix(0.945519 0.325568 0.325568 -0.945519 18.5541 25.043)" fill="#3B3C3E" fill-opacity="0.3"/>
<rect width="1" height="1" transform="matrix(0.945519 0.325568 0.325568 -0.945519 14.1208 25.6318)" fill="#3B3C3E" fill-opacity="0.1"/>
<rect width="1" height="1" transform="matrix(0.945519 0.325568 0.325568 -0.945519 15.6863 27.2284)" fill="#3B3C3E" fill-opacity="0.1"/>
<rect width="1" height="1" transform="matrix(0.945519 0.325568 0.325568 -0.945519 19.7939 27.5852)" fill="#3B3C3E" fill-opacity="0.1"/>
<rect width="1" height="1" transform="matrix(0.945519 0.325568 0.325568 -0.945519 16.0118 26.2829)" fill="#3B3C3E" fill-opacity="0.1"/>
<rect width="1" height="1" transform="matrix(0.945519 0.325568 0.325568 -0.945519 17.9028 26.9341)" fill="#3B3C3E" fill-opacity="0.1"/>
<rect width="2" height="5" transform="matrix(0.945519 0.325568 0.325568 -0.945519 14.772 23.7407)" fill="#3D3D3D"/>
<rect x="8.74207" y="25.895" width="1" height="1" transform="rotate(-161 8.74207 25.895)" fill="#3D3D3D"/>
<rect x="23.2505" y="29.833" width="1" height="11" transform="rotate(-161 23.2505 29.833)" fill="#3D3D3D"/>
<rect width="1" height="1" transform="matrix(0.945519 0.325568 0.325568 -0.945519 24.9407 18.7811)" fill="#3D3D3D"/>
<rect width="1" height="1" transform="matrix(0.945519 0.325568 0.325568 -0.945519 21.0338 30.1273)" fill="#3D3D3D"/>
<g clip-path="url(#clip1_67_15633)">
<rect width="12" height="1" transform="matrix(0.945519 0.325568 0.325568 -0.945519 13.92 13.9288)" fill="#3D3D3D"/>
<rect width="2" height="1" transform="matrix(0.945519 0.325568 0.325568 -0.945519 8.4165 26.8405)" fill="#3D3D3D"/>
<rect width="2" height="1" transform="matrix(0.945519 0.325568 0.325568 -0.945519 18.8173 30.4217)" fill="#3D3D3D"/>
<rect width="1" height="10" transform="matrix(0.945519 0.325568 0.325568 -0.945519 7.17664 24.2983)" fill="#3D3D3D"/>
<rect x="13.8888" y="17.0909" width="1" height="1" transform="rotate(-161 13.8888 17.0909)" fill="#3B3C3E" fill-opacity="0.22"/>
<rect x="13.8888" y="17.0909" width="2" height="2" transform="rotate(-161 13.8888 17.0909)" fill="#A27D3D"/>
<rect x="13.5945" y="14.8743" width="1" height="1" transform="rotate(-161 13.5945 14.8743)" fill="#A27D3D"/>
<rect x="12.3234" y="15.4943" width="1" height="3" transform="rotate(-161 12.3234 15.4943)" fill="#A27D3D"/>
<rect x="11.7034" y="14.2232" width="1" height="2" transform="rotate(-161 11.7034 14.2232)" fill="#A27D3D"/>
<rect x="11.4091" y="12.0066" width="1" height="1" transform="rotate(-161 11.4091 12.0066)" fill="#A27D3D"/>
<rect x="10.1379" y="12.6265" width="1" height="2" transform="rotate(-161 10.1379 12.6265)" fill="#00C4FF" fill-opacity="0.55"/>
<rect x="12.6801" y="11.3866" width="2" height="1" transform="rotate(-161 12.6801 11.3866)" fill="#00C4FF" fill-opacity="0.55"/>
<path d="M12.0602 10.1155L11.1147 9.78997L11.4402 8.84445L12.3857 9.17002L12.0602 10.1155Z" fill="#00C4FF" fill-opacity="0.55"/>
<rect x="9.51794" y="11.3554" width="1" height="1" transform="rotate(-161 9.51794 11.3554)" fill="#00C4FF" fill-opacity="0.55"/>
<rect x="12.9432" y="16.7654" width="1" height="1" transform="rotate(-161 12.9432 16.7654)" fill="#3B3C3E" fill-opacity="0.22"/>
<rect x="14.2144" y="16.1454" width="1" height="1" transform="rotate(-161 14.2144 16.1454)" fill="#3B3C3E" fill-opacity="0.22"/>
<rect x="14.5088" y="18.362" width="1" height="1" transform="rotate(-161 14.5088 18.362)" fill="#3B3C3E" fill-opacity="0.3"/>
<rect x="13.5632" y="18.0364" width="1" height="1" transform="rotate(-161 13.5632 18.0364)" fill="#3B3C3E" fill-opacity="0.3"/>
<rect x="14.8344" y="17.4165" width="1" height="1" transform="rotate(-161 14.8344 17.4165)" fill="#3B3C3E" fill-opacity="0.3"/>
<rect x="13.8888" y="17.0909" width="1" height="1" transform="rotate(-161 13.8888 17.0909)" fill="#3B3C3E" fill-opacity="0.3"/>
<rect x="13.8888" y="17.0909" width="1" height="1" transform="rotate(-161 13.8888 17.0909)" fill="#3B3C3E" fill-opacity="0.3"/>
<rect x="12.3234" y="15.4943" width="1" height="1" transform="rotate(-161 12.3234 15.4943)" fill="#3B3C3E" fill-opacity="0.22"/>
<rect x="13.5945" y="14.8743" width="1" height="1" transform="rotate(-161 13.5945 14.8743)" fill="#3B3C3E" fill-opacity="0.22"/>
<rect x="11.7034" y="14.2232" width="1" height="1" transform="rotate(-161 11.7034 14.2232)" fill="#3B3C3E" fill-opacity="0.22"/>
<rect x="12.9745" y="13.6032" width="1" height="1" transform="rotate(-161 12.9745 13.6032)" fill="#3B3C3E" fill-opacity="0.22"/>
<rect x="10.1379" y="12.6265" width="1" height="1" transform="rotate(-161 10.1379 12.6265)" fill="#3B3C3E" fill-opacity="0.3"/>
<rect x="9.51794" y="11.3554" width="1" height="1" transform="rotate(-161 9.51794 11.3554)" fill="#3B3C3E" fill-opacity="0.3"/>
<rect x="11.0834" y="12.9521" width="1" height="1" transform="rotate(-161 11.0834 12.9521)" fill="#3B3C3E" fill-opacity="0.3"/>
<rect x="12.0602" y="10.1155" width="1" height="1" transform="rotate(-161 12.0602 10.1155)" fill="#3B3C3E" fill-opacity="0.3"/>
<rect x="12.3545" y="12.3322" width="1" height="1" transform="rotate(-161 12.3545 12.3322)" fill="#3B3C3E" fill-opacity="0.3"/>
<rect x="11.0834" y="12.9521" width="1" height="1" transform="rotate(-161 11.0834 12.9521)" fill="#00C4FF" fill-opacity="0.55"/>
<rect x="12.3545" y="12.3322" width="1" height="1" transform="rotate(-161 12.3545 12.3322)" fill="#00C4FF" fill-opacity="0.55"/>
<rect x="12.6801" y="11.3866" width="1" height="1" transform="rotate(-161 12.6801 11.3866)" fill="#3B3C3E" fill-opacity="0.3"/>
<rect x="8.74207" y="25.895" width="1" height="1" transform="rotate(-161 8.74207 25.895)" fill="#3D3D3D"/>
<rect x="23.2505" y="29.833" width="1" height="11" transform="rotate(-161 23.2505 29.833)" fill="#3D3D3D"/>
<rect width="1" height="1" transform="matrix(0.945519 0.325568 0.325568 -0.945519 24.9407 18.7811)" fill="#3D3D3D"/>
<rect width="1" height="1" transform="matrix(0.945519 0.325568 0.325568 -0.945519 21.0338 30.1273)" fill="#3D3D3D"/>
</g>
<rect width="1" height="1" transform="matrix(-1 0 0 1 27 26)" fill="#3D3D3D"/>
<rect width="1" height="1" transform="matrix(-1 0 0 1 28 27)" fill="#3D3D3D"/>
<rect width="1" height="1" transform="matrix(-1 0 0 1 28 28)" fill="#3D3D3D"/>
<rect width="1" height="1" transform="matrix(-1 0 0 1 28 29)" fill="#3D3D3D"/>
<rect width="1" height="1" transform="matrix(-1 0 0 1 25 30)" fill="#3D3D3D"/>
<rect width="1" height="1" transform="matrix(-1 0 0 1 24 29)" fill="#3D3D3D"/>
<rect width="1" height="1" transform="matrix(-1 0 0 1 24 28)" fill="#3D3D3D"/>
<rect width="1" height="1" transform="matrix(-1 0 0 1 27 30)" fill="#3D3D3D"/>
<rect width="1" height="1" transform="matrix(-1 0 0 1 26 30)" fill="#3D3D3D"/>
<rect width="2" height="1" transform="matrix(-1 0 0 1 26 26)" fill="#3D3D3D"/>
<rect width="3" height="3" transform="matrix(-1 0 0 1 27 27)" fill="white"/>
<g clip-path="url(#clip2_67_15633)">
<rect width="3" height="3" transform="matrix(-1 0 0 1 27 27)" fill="white"/>
<rect width="3" height="3" transform="matrix(-1 0 0 1 27 27)" fill="#DFDFDF"/>
<rect width="1" height="2" transform="matrix(-1 0 0 1 27 28)" fill="#3B3C3E" fill-opacity="0.1"/>
<rect width="2" height="1" transform="matrix(-1 0 0 1 26 29)" fill="#3B3C3E" fill-opacity="0.1"/>
</g>
<rect x="7.34802" y="26.4333" width="1" height="1" transform="rotate(-1 7.34802 26.4333)" fill="#3D3D3D"/>
<rect x="6.3656" y="27.4506" width="1" height="1" transform="rotate(-1 6.3656 27.4506)" fill="#3D3D3D"/>
<rect x="6.38306" y="28.4504" width="1" height="1" transform="rotate(-1 6.38306 28.4504)" fill="#3D3D3D"/>
<rect x="6.40051" y="29.4503" width="1" height="1" transform="rotate(-1 6.40051 29.4503)" fill="#3D3D3D"/>
<rect x="9.41748" y="30.3977" width="1" height="1" transform="rotate(-1 9.41748 30.3977)" fill="#3D3D3D"/>
<rect x="10.3999" y="29.3804" width="1" height="1" transform="rotate(-1 10.3999 29.3804)" fill="#3D3D3D"/>
<rect x="10.3824" y="28.3806" width="1" height="1" transform="rotate(-1 10.3824 28.3806)" fill="#3D3D3D"/>
<rect x="7.41785" y="30.4326" width="1" height="1" transform="rotate(-1 7.41785 30.4326)" fill="#3D3D3D"/>
<rect x="8.4176" y="30.4152" width="1" height="1" transform="rotate(-1 8.4176 30.4152)" fill="#3D3D3D"/>
<rect x="8.34778" y="26.4158" width="2" height="1" transform="rotate(-1 8.34778 26.4158)" fill="#3D3D3D"/>
<rect width="3" height="3" transform="translate(7.36548 27.4331) rotate(-1)" fill="white"/>
<g clip-path="url(#clip3_67_15633)">
<rect width="3" height="3" transform="translate(7.36548 27.4331) rotate(-1)" fill="white"/>
<rect width="3" height="3" transform="translate(7.36548 27.4331) rotate(-1)" fill="#DFDFDF"/>
<rect width="1" height="2" transform="translate(7.38293 28.433) rotate(-1)" fill="#3B3C3E" fill-opacity="0.1"/>
<rect width="2" height="1" transform="translate(8.40027 29.4153) rotate(-1)" fill="#3B3C3E" fill-opacity="0.1"/>
</g>
</g>
<defs>
<clipPath id="clip0_67_15633">
<rect width="32" height="32" fill="white"/>
</clipPath>
<clipPath id="clip1_67_15633">
<rect width="32" height="32" fill="white" transform="translate(6.41821 5) rotate(19)"/>
</clipPath>
<clipPath id="clip2_67_15633">
<rect width="3" height="3" fill="white" transform="matrix(-1 0 0 1 27 27)"/>
</clipPath>
<clipPath id="clip3_67_15633">
<rect width="3" height="3" fill="white" transform="translate(7.36548 27.4331) rotate(-1)"/>
</clipPath>
</defs>
</svg>
