<svg width="30" height="30" viewBox="0 0 30 30" fill="none" xmlns="http://www.w3.org/2000/svg">
<g clip-path="url(#clip0_135_23607)">
<rect width="14" height="30" transform="matrix(0 1 1 0 0 8)" fill="#D9D9D9"/>
<rect width="4" height="4" transform="matrix(1 0 0 -1 4 8)" fill="#D9D9D9"/>
<rect width="4" height="4" transform="matrix(1 0 0 -1 22 8)" fill="#D9D9D9"/>
<rect width="4" height="4" transform="matrix(1 0 0 -1 4 26)" fill="#D9D9D9"/>
<rect width="4" height="4" transform="matrix(1 0 0 -1 22 26)" fill="#D9D9D9"/>
<rect width="14" height="30" transform="matrix(1 0 0 -1 8 30)" fill="#D9D9D9"/>
<rect x="22" y="4" width="4" height="4" fill="#3B3C3E" fill-opacity="0.66"/>
<rect x="4" y="4" width="4" height="4" fill="#3B3C3E" fill-opacity="0.66"/>
<rect x="22" y="22" width="4" height="4" fill="#3B3C3E" fill-opacity="0.66"/>
<rect x="4" y="22" width="4" height="4" fill="#3B3C3E" fill-opacity="0.66"/>
<rect y="8" width="4" height="14" fill="#3B3C3E" fill-opacity="0.66"/>
<rect x="26" y="8" width="4" height="14" fill="#3B3C3E" fill-opacity="0.66"/>
<rect x="8" width="14" height="4" fill="#3B3C3E" fill-opacity="0.66"/>
<rect x="8" y="26" width="14" height="4" fill="#3B3C3E" fill-opacity="0.66"/>
</g>
<defs>
<clipPath id="clip0_135_23607">
<rect width="30" height="30" fill="white"/>
</clipPath>
</defs>
</svg>
