<svg width="9" height="8" viewBox="0 0 9 8" fill="none" xmlns="http://www.w3.org/2000/svg">
<rect x="1" y="4" width="7" height="3" fill="#FF383C"/>
<rect width="3" height="3" transform="matrix(1 0 0 -1 3 4)" fill="#CFCFCF"/>
<rect width="1" height="1" transform="matrix(1 0 0 -1 7 5)" fill="#CFCFCF" fill-opacity="0.59"/>
<rect width="1" height="1" transform="matrix(1 0 0 -1 5 4)" fill="#CFCFCF" fill-opacity="0.59"/>
<rect x="3" y="2" width="1" height="1" fill="#3B3C3E"/>
<rect x="2" y="3" width="1" height="1" fill="#3B3C3E"/>
<rect x="6" y="3" width="2" height="1" fill="#3B3C3E"/>
<rect x="1" y="3" width="1" height="1" fill="#3B3C3E"/>
<rect y="4" width="1" height="2" fill="#3B3C3E"/>
<rect x="8" y="4" width="1" height="2" fill="#3B3C3E"/>
<rect x="1" y="6" width="1" height="1" fill="#3B3C3E"/>
<rect x="7" y="6" width="1" height="1" fill="#3B3C3E"/>
<rect x="2" y="7" width="5" height="1" fill="#3B3C3E"/>
<rect x="5" y="2" width="1" height="1" fill="#3B3C3E"/>
<rect x="2" width="5" height="1" fill="#3B3C3E"/>
<rect x="2" y="1" width="1" height="1" fill="#3B3C3E"/>
<rect x="6" y="1" width="1" height="1" fill="#3B3C3E"/>
</svg>
