<svg width="10" height="8" viewBox="0 0 10 8" fill="none" xmlns="http://www.w3.org/2000/svg">
<rect x="1" y="4" width="7" height="3" fill="#FF8D28"/>
<rect x="7" y="4" width="1" height="1" fill="#BBBBBB" fill-opacity="0.5"/>
<rect width="3" height="3" transform="matrix(1 0 0 -1 3 4)" fill="#D8E98D"/>
<rect x="3" y="2" width="1" height="1" fill="#FFCC00"/>
<rect x="2" y="3" width="1" height="1" fill="#FFCC00"/>
<rect x="6" y="3" width="2" height="1" fill="#FFCC00"/>
<rect x="1" y="3" width="1" height="1" fill="#FFCC00"/>
<rect y="1" width="1" height="1" fill="#FFCC00" fill-opacity="0.2"/>
<rect y="3" width="1" height="1" fill="#FFCC00" fill-opacity="0.2"/>
<rect y="4" width="1" height="2" fill="#FFCC00"/>
<rect x="8" y="4" width="1" height="2" fill="#FFCC00"/>
<rect x="1" y="6" width="1" height="1" fill="#FFCC00"/>
<rect x="7" y="6" width="1" height="1" fill="#FFCC00"/>
<rect x="2" y="7" width="5" height="1" fill="#FFCC00"/>
<rect x="5" y="2" width="1" height="1" fill="#FFCC00"/>
<rect x="2" width="5" height="1" fill="#FFCC00"/>
<rect x="2" y="1" width="1" height="1" fill="#FFCC00"/>
<rect x="6" y="1" width="1" height="1" fill="#FFCC00"/>
<rect x="5" y="3" width="1" height="1" fill="#BBBBBB" fill-opacity="0.3"/>
<rect width="1" height="1" transform="matrix(-1 0 0 1 9 1)" fill="#FFCC00" fill-opacity="0.2"/>
<rect width="1" height="1" transform="matrix(-1 0 0 1 10 3)" fill="#FFCC00" fill-opacity="0.2"/>
<rect x="1" width="1" height="1" fill="#FFCC00" fill-opacity="0.2"/>
</svg>
