<svg width="9" height="8" viewBox="0 0 9 8" fill="none" xmlns="http://www.w3.org/2000/svg">
<rect width="9" height="1" fill="#34C759"/>
<rect x="2" y="7" width="5" height="1" fill="#34C759"/>
<rect x="1" y="1" width="7" height="5" fill="#F2F2F7"/>
<rect x="4" y="1.5" width="1" height="1" fill="#34C759"/>
<rect x="2" y="3" width="5" height="0.25" fill="#34C759"/>
<rect width="5" height="1" transform="matrix(1 0 0 -1 2 7)" fill="#F2F2F7"/>
<rect width="1" height="5" transform="matrix(-1 0 0 1 1 1)" fill="#34C759"/>
<rect width="1" height="5" transform="matrix(-1 0 0 1 9 1)" fill="#34C759"/>
<rect x="8" y="7" width="1" height="1" transform="rotate(180 8 7)" fill="#34C759"/>
<rect x="2" y="7" width="1" height="1" transform="rotate(180 2 7)" fill="#34C759"/>
<rect x="5" y="1.75" width="0.25" height="0.5" fill="#34C759"/>
<rect x="3.75" y="1.75" width="0.25" height="0.5" fill="#34C759"/>
<rect x="4.25" y="2.5" width="0.5" height="0.25" fill="#34C759"/>
<rect x="4.25" y="1.25" width="0.5" height="0.25" fill="#34C759"/>
<rect x="2" y="4" width="2.25" height="0.25" fill="#34C759"/>
<rect width="0.25" height="0.25" transform="matrix(-1 0 0 1 4.5 4.75)" fill="#34C759"/>
<rect width="0.25" height="0.25" transform="matrix(-1 0 0 1 4.25 5)" fill="#34C759"/>
<rect width="0.25" height="0.25" transform="matrix(-1 0 0 1 4 5.25)" fill="#34C759"/>
<rect width="0.25" height="0.25" transform="matrix(-1 0 0 1 3.75 5.5)" fill="#34C759"/>
<rect width="0.25" height="0.25" transform="matrix(-1 0 0 1 3.5 5.75)" fill="#34C759"/>
<rect width="0.25" height="0.25" transform="matrix(-1 0 0 1 3.25 6)" fill="#34C759"/>
<rect width="0.25" height="0.25" transform="matrix(-1 0 0 1 2.75 5.5)" fill="#34C759"/>
<rect width="0.25" height="0.25" transform="matrix(-1 0 0 1 4 4.25)" fill="#34C759"/>
<rect width="0.25" height="0.25" transform="matrix(-1 0 0 1 3.75 4.5)" fill="#34C759"/>
<rect width="0.25" height="0.25" transform="matrix(-1 0 0 1 3.5 4.75)" fill="#34C759"/>
<rect width="0.25" height="0.25" transform="matrix(-1 0 0 1 3.25 5)" fill="#34C759"/>
<rect width="0.25" height="0.25" transform="matrix(-1 0 0 1 3 5.25)" fill="#34C759"/>
<rect width="2.25" height="0.25" transform="matrix(-1 0 0 1 7 4)" fill="#34C759"/>
<rect x="4.5" y="4.75" width="0.25" height="0.25" fill="#34C759"/>
<rect x="4.75" y="5" width="0.25" height="0.25" fill="#34C759"/>
<rect x="5" y="5.25" width="0.25" height="0.25" fill="#34C759"/>
<rect x="5.25" y="5.5" width="0.25" height="0.25" fill="#34C759"/>
<rect x="5.5" y="5.75" width="0.25" height="0.25" fill="#34C759"/>
<rect x="5.75" y="6" width="0.25" height="0.25" fill="#34C759"/>
<rect x="6.25" y="5.5" width="0.25" height="0.25" fill="#34C759"/>
<rect x="5" y="4.25" width="0.25" height="0.25" fill="#34C759"/>
<rect x="5.25" y="4.5" width="0.25" height="0.25" fill="#34C759"/>
<rect x="5.5" y="4.75" width="0.25" height="0.25" fill="#34C759"/>
<rect x="5.75" y="5" width="0.25" height="0.25" fill="#34C759"/>
<rect x="6" y="5.25" width="0.25" height="0.25" fill="#34C759"/>
</svg>
