<svg width="129" height="162" viewBox="0 0 129 162" fill="none" xmlns="http://www.w3.org/2000/svg">
<rect x="4" y="4" width="121" height="154" fill="#D9D9D9"/>
<rect width="121" height="4" transform="matrix(1 0 0 -1 4 4)" fill="#3B3C3E" fill-opacity="0.3"/>
<rect width="121" height="4" transform="matrix(1 0 0 -1 4 162)" fill="#3B3C3E" fill-opacity="0.3"/>
<rect x="4" y="158" width="4" height="154" transform="rotate(180 4 158)" fill="#3B3C3E" fill-opacity="0.3"/>
<rect x="129" y="158" width="4" height="154" transform="rotate(180 129 158)" fill="#3B3C3E" fill-opacity="0.3"/>
<g clip-path="url(#clip0_11_22591)">
<path d="M61.2382 33C66.6857 33 71.1362 37.4357 71.1362 42.873C71.1362 48.3103 66.7002 52.746 61.2382 52.746C55.7763 52.746 51.3403 48.3103 51.3403 42.873C51.3403 37.4357 55.7908 33 61.2382 33Z" fill="#46777C"/>
<path d="M25.2013 64.8512V64.8941C25.1724 65.0658 25.1579 65.1803 25.1579 65.2518C25.1579 65.7669 25.4469 66.1389 26.0249 66.3965C26.6173 66.6397 27.5132 66.7685 28.7414 66.7685C29.6806 66.7685 30.4031 66.6684 30.9377 66.468C31.4724 66.2677 31.7325 65.9815 31.7325 65.6238C31.7325 65.0801 30.6776 64.6508 28.5969 64.3074C28.3513 64.2645 28.1634 64.2359 28.0478 64.2216C27.9178 64.193 27.7155 64.1643 27.4554 64.1214C24.132 63.5777 21.9935 62.991 21.0398 62.3614C20.5774 62.0467 20.2306 61.6889 19.985 61.274C19.7538 60.859 19.6382 60.3868 19.6382 59.8574C19.6382 58.5696 20.404 57.5823 21.9357 56.9098C23.4673 56.2373 25.707 55.8939 28.6403 55.8939C31.5735 55.8939 33.6976 56.2087 35.0992 56.8383C36.5008 57.4679 37.1944 58.4409 37.1944 59.7573V59.9147H31.6891V59.8574C31.6891 59.3995 31.4146 59.0704 30.851 58.8272C30.2875 58.5983 29.4783 58.4695 28.3946 58.4695C27.5565 58.4695 26.9063 58.5553 26.4728 58.7127C26.0105 58.8844 25.7937 59.1134 25.7937 59.4139C25.7937 59.9576 26.993 60.4298 29.3916 60.8018C29.854 60.8733 30.2153 60.9306 30.4753 60.9735C32.1804 61.2597 33.4086 61.5029 34.1311 61.7032C34.8535 61.9036 35.4749 62.1468 36.0095 62.4187C36.5875 62.7335 37.0499 63.1341 37.3678 63.6206C37.6857 64.1071 37.8446 64.6365 37.8446 65.2232C37.8446 66.5539 37.0065 67.5698 35.3448 68.2995C33.6831 69.015 31.2845 69.3727 28.1634 69.3727C25.0423 69.3727 22.8316 69.0293 21.4589 68.3425C20.0717 67.6557 19.3926 66.5539 19.3926 65.0229V64.8225H25.2013V64.8512ZM40.2866 69.1724V56.0942H55.9932V58.9131H46.182V61.0021H55.2418V63.7923H46.182V66.325H56.3544V69.1867H40.2866V69.1724ZM58.8253 69.1724V56.0942H66.2812L74.2718 64.8798V56.0942H79.936V69.1724H72.1911L64.4606 60.3582V69.1724H58.8108H58.8253ZM95.1658 63.9497L92.3481 59.1992L89.3715 63.9497H95.1802H95.1658ZM86.1782 69.1724H80.2683L89.4004 56.0942H95.9461L104.659 69.1724H98.099L96.7697 66.8114H87.6231L86.2071 69.1724H86.1782Z" fill="#46777C"/>
<path d="M32.455 115.304L27.1809 110.396L43.2199 82.7942C44.0869 81.2918 43.0031 79.403 41.2548 79.403H15V72.4919H57.2504L32.455 115.304Z" fill="#46777C"/>
<path d="M89.5595 115.304L94.8336 110.396L78.7946 82.7942C77.9277 81.2918 79.0114 79.403 80.7598 79.403H107.015V72.4919H64.7642L89.5595 115.304Z" fill="#46777C"/>
<path d="M60.9494 79.7894L61.0072 79.6892L84.8199 118.723L78.4911 121.986L63.1457 96.5019C62.2354 94.9995 60.0535 94.9995 59.1576 96.5019C54.0425 105.059 43.9134 121.986 43.9134 121.986L37.729 118.952C37.729 118.952 59.6778 81.9357 60.9494 79.7894Z" fill="#46777C"/>
</g>
<defs>
<clipPath id="clip0_11_22591">
<rect width="92" height="89" fill="white" transform="translate(15 33)"/>
</clipPath>
</defs>
</svg>
