<svg width="209" height="154" viewBox="0 0 209 154" fill="none" xmlns="http://www.w3.org/2000/svg">
<g clip-path="url(#clip0_11_22590)">
<rect width="193" height="9" transform="matrix(1 0 0 -1 8 146)" fill="#BF650F"/>
<rect x="8" y="142" width="193" height="4" fill="#3B3C3E" fill-opacity="0.3"/>
<rect width="9" height="124" transform="matrix(1 0 0 -1 188 141)" fill="#8B401D"/>
<rect width="4" height="120" transform="matrix(-1 0 0 1 201 17)" fill="#3B3C3E"/>
<rect x="188" y="17" width="4" height="124" fill="#3B3C3E" fill-opacity="0.3"/>
<rect width="4" height="9" transform="matrix(-1 0 0 1 205 8)" fill="#3B3C3E"/>
<rect x="21" y="17" width="167" height="120" fill="#A27D3D"/>
<rect width="193" height="9" transform="matrix(1 0 0 -1 8 17)" fill="#BF650F"/>
<rect width="9" height="124" transform="matrix(1 0 0 -1 12 141)" fill="#8B401D"/>
<rect x="12" y="17" width="4" height="124" fill="#3B3C3E" fill-opacity="0.3"/>
<rect x="21" y="23" width="4" height="110" fill="#3B3C3E" fill-opacity="0.3"/>
<rect x="182" y="23" width="6" height="110" fill="#3B3C3E" fill-opacity="0.3"/>
<rect x="12" y="17" width="185" height="6" fill="#3B3C3E" fill-opacity="0.3"/>
<rect x="21" y="133" width="167" height="4" fill="#3B3C3E" fill-opacity="0.3"/>
<rect x="8" y="17" width="4" height="120" fill="#3B3C3E"/>
<rect x="4" y="8" width="4" height="9" fill="#3B3C3E"/>
<rect x="4" y="137" width="4" height="9" fill="#3B3C3E"/>
<rect x="8" y="146" width="193" height="4" fill="#3B3C3E"/>
<rect x="8" y="4" width="193" height="4" fill="#3B3C3E"/>
<rect width="4" height="9" transform="matrix(-1 0 0 1 205 137)" fill="#3B3C3E"/>
<rect x="8" y="13" width="193" height="4" fill="#3B3C3E" fill-opacity="0.3"/>
<rect x="39" y="31" width="32" height="42" fill="#DA8DE9"/>
<rect x="39" y="31" width="32" height="42" fill="#DA8DE9"/>
<rect width="30" height="2" transform="matrix(1 0 0 -1 40 74)" fill="#3B3C3E" fill-opacity="0.3"/>
<rect x="72" y="74" width="2" height="1" transform="rotate(180 72 74)" fill="#3B3C3E" fill-opacity="0.3"/>
<rect x="40" y="74" width="2" height="1" transform="rotate(180 40 74)" fill="#3B3C3E" fill-opacity="0.3"/>
<rect x="72" y="73" width="2" height="34" transform="rotate(180 72 73)" fill="#3B3C3E" fill-opacity="0.3"/>
<rect x="40" y="73" width="2" height="41" transform="rotate(180 40 73)" fill="#3B3C3E" fill-opacity="0.3"/>
<rect x="71" y="34" width="7" height="2" transform="rotate(180 71 34)" fill="#A27D3D"/>
<rect x="71" y="36" width="5" height="2" transform="rotate(180 71 36)" fill="#A27D3D"/>
<rect x="71" y="38" width="3" height="2" transform="rotate(180 71 38)" fill="#A27D3D"/>
<rect x="72" y="39" width="2" height="2" transform="rotate(180 72 39)" fill="#A27D3D"/>
<rect x="71" y="32" width="9" height="2" transform="rotate(180 71 32)" fill="#A27D3D"/>
<rect width="24" height="2" transform="matrix(1 0 0 -1 38 32)" fill="#3B3C3E" fill-opacity="0.3"/>
<rect x="64" y="33" width="2" height="2" transform="rotate(180 64 33)" fill="#3B3C3E" fill-opacity="0.3"/>
<rect x="62" y="39" width="1" height="5" transform="rotate(180 62 39)" fill="#3B3C3E" fill-opacity="0.3"/>
<rect width="5" height="1" transform="matrix(-1 0 0 1 67 39)" fill="#3B3C3E" fill-opacity="0.3"/>
<rect width="16" height="2" transform="matrix(-1 0 0 1 59 37)" fill="#3B3C3E" fill-opacity="0.22"/>
<rect width="16" height="2" transform="matrix(-1 0 0 1 59 48)" fill="#3B3C3E" fill-opacity="0.22"/>
<rect width="16" height="2" transform="matrix(-1 0 0 1 59 58)" fill="#3B3C3E" fill-opacity="0.22"/>
<rect width="24" height="2" transform="matrix(-1 0 0 1 67 43)" fill="#3B3C3E" fill-opacity="0.22"/>
<rect width="24" height="2" transform="matrix(-1 0 0 1 67 53)" fill="#3B3C3E" fill-opacity="0.22"/>
<rect width="5" height="2" transform="matrix(-1 0 0 1 67 39)" fill="#3B3C3E" fill-opacity="0.3"/>
<rect x="66" y="35" width="2" height="2" transform="rotate(180 66 35)" fill="#3B3C3E" fill-opacity="0.3"/>
<rect x="68" y="37" width="2" height="2" transform="rotate(180 68 37)" fill="#3B3C3E" fill-opacity="0.3"/>
<rect x="70" y="39" width="2" height="2" transform="rotate(180 70 39)" fill="#3B3C3E" fill-opacity="0.3"/>
<rect x="39" y="81" width="32" height="42" fill="#E6E6E6"/>
<rect x="39" y="81" width="32" height="42" fill="#E6E6E6"/>
<rect width="30" height="2" transform="matrix(1 0 0 -1 40 124)" fill="#3B3C3E" fill-opacity="0.3"/>
<rect x="72" y="124" width="2" height="1" transform="rotate(180 72 124)" fill="#3B3C3E" fill-opacity="0.3"/>
<rect x="40" y="124" width="2" height="1" transform="rotate(180 40 124)" fill="#3B3C3E" fill-opacity="0.3"/>
<rect x="72" y="123" width="2" height="34" transform="rotate(180 72 123)" fill="#3B3C3E" fill-opacity="0.3"/>
<rect x="40" y="123" width="2" height="41" transform="rotate(180 40 123)" fill="#3B3C3E" fill-opacity="0.3"/>
<rect x="71" y="84" width="7" height="2" transform="rotate(180 71 84)" fill="#A27D3D"/>
<rect x="71" y="86" width="5" height="2" transform="rotate(180 71 86)" fill="#A27D3D"/>
<rect x="71" y="88" width="3" height="2" transform="rotate(180 71 88)" fill="#A27D3D"/>
<rect x="72" y="89" width="2" height="2" transform="rotate(180 72 89)" fill="#A27D3D"/>
<rect x="71" y="82" width="9" height="2" transform="rotate(180 71 82)" fill="#A27D3D"/>
<rect width="24" height="2" transform="matrix(1 0 0 -1 38 82)" fill="#3B3C3E" fill-opacity="0.3"/>
<rect x="64" y="83" width="2" height="2" transform="rotate(180 64 83)" fill="#3B3C3E" fill-opacity="0.3"/>
<rect x="62" y="89" width="1" height="5" transform="rotate(180 62 89)" fill="#3B3C3E" fill-opacity="0.3"/>
<rect width="5" height="1" transform="matrix(-1 0 0 1 67 89)" fill="#3B3C3E" fill-opacity="0.3"/>
<rect width="16" height="2" transform="matrix(-1 0 0 1 59 87)" fill="#3B3C3E" fill-opacity="0.22"/>
<rect width="16" height="2" transform="matrix(-1 0 0 1 59 98)" fill="#3B3C3E" fill-opacity="0.22"/>
<rect width="16" height="2" transform="matrix(-1 0 0 1 59 108)" fill="#3B3C3E" fill-opacity="0.22"/>
<rect width="24" height="2" transform="matrix(-1 0 0 1 67 93)" fill="#3B3C3E" fill-opacity="0.22"/>
<rect width="24" height="2" transform="matrix(-1 0 0 1 67 103)" fill="#3B3C3E" fill-opacity="0.22"/>
<rect width="5" height="2" transform="matrix(-1 0 0 1 67 89)" fill="#3B3C3E" fill-opacity="0.3"/>
<rect x="66" y="85" width="2" height="2" transform="rotate(180 66 85)" fill="#3B3C3E" fill-opacity="0.3"/>
<rect x="68" y="87" width="2" height="2" transform="rotate(180 68 87)" fill="#3B3C3E" fill-opacity="0.3"/>
<rect x="70" y="89" width="2" height="2" transform="rotate(180 70 89)" fill="#3B3C3E" fill-opacity="0.3"/>
<rect x="106" y="47" width="32" height="42" fill="#00C4FF" fill-opacity="0.55"/>
<rect x="106" y="47" width="32" height="42" fill="#00C4FF" fill-opacity="0.55"/>
<rect width="30" height="2" transform="matrix(1 0 0 -1 107 90)" fill="#3B3C3E" fill-opacity="0.3"/>
<rect x="139" y="90" width="2" height="1" transform="rotate(180 139 90)" fill="#3B3C3E" fill-opacity="0.3"/>
<rect x="107" y="90" width="2" height="1" transform="rotate(180 107 90)" fill="#3B3C3E" fill-opacity="0.3"/>
<rect x="139" y="89" width="2" height="34" transform="rotate(180 139 89)" fill="#3B3C3E" fill-opacity="0.3"/>
<rect x="107" y="89" width="2" height="41" transform="rotate(180 107 89)" fill="#3B3C3E" fill-opacity="0.3"/>
<rect x="138" y="50" width="7" height="2" transform="rotate(180 138 50)" fill="#A27D3D"/>
<rect x="138" y="52" width="5" height="2" transform="rotate(180 138 52)" fill="#A27D3D"/>
<rect x="138" y="54" width="3" height="2" transform="rotate(180 138 54)" fill="#A27D3D"/>
<rect x="139" y="55" width="2" height="2" transform="rotate(180 139 55)" fill="#A27D3D"/>
<rect x="138" y="48" width="9" height="2" transform="rotate(180 138 48)" fill="#A27D3D"/>
<rect width="24" height="2" transform="matrix(1 0 0 -1 105 48)" fill="#3B3C3E" fill-opacity="0.3"/>
<rect x="131" y="49" width="2" height="2" transform="rotate(180 131 49)" fill="#3B3C3E" fill-opacity="0.3"/>
<rect x="129" y="55" width="1" height="5" transform="rotate(180 129 55)" fill="#3B3C3E" fill-opacity="0.3"/>
<rect width="5" height="1" transform="matrix(-1 0 0 1 134 55)" fill="#3B3C3E" fill-opacity="0.3"/>
<rect width="16" height="2" transform="matrix(-1 0 0 1 126 53)" fill="#3B3C3E" fill-opacity="0.22"/>
<rect width="16" height="2" transform="matrix(-1 0 0 1 126 64)" fill="#3B3C3E" fill-opacity="0.22"/>
<rect width="16" height="2" transform="matrix(-1 0 0 1 126 74)" fill="#3B3C3E" fill-opacity="0.22"/>
<rect width="24" height="2" transform="matrix(-1 0 0 1 134 59)" fill="#3B3C3E" fill-opacity="0.22"/>
<rect width="24" height="2" transform="matrix(-1 0 0 1 134 69)" fill="#3B3C3E" fill-opacity="0.22"/>
<rect width="5" height="2" transform="matrix(-1 0 0 1 134 55)" fill="#3B3C3E" fill-opacity="0.3"/>
<rect x="133" y="51" width="2" height="2" transform="rotate(180 133 51)" fill="#3B3C3E" fill-opacity="0.3"/>
<rect x="135" y="53" width="2" height="2" transform="rotate(180 135 53)" fill="#3B3C3E" fill-opacity="0.3"/>
<rect x="137" y="55" width="2" height="2" transform="rotate(180 137 55)" fill="#3B3C3E" fill-opacity="0.3"/>
<rect width="16" height="2" transform="matrix(-1 0 0 1 126 79)" fill="#3B3C3E" fill-opacity="0.22"/>
<rect x="130" y="74" width="32" height="42" fill="#D8E98D"/>
<rect x="130" y="74" width="32" height="42" fill="#D8E98D"/>
<rect width="30" height="2" transform="matrix(1 0 0 -1 131 117)" fill="#3B3C3E" fill-opacity="0.3"/>
<rect x="163" y="117" width="2" height="1" transform="rotate(180 163 117)" fill="#3B3C3E" fill-opacity="0.3"/>
<rect x="131" y="117" width="2" height="1" transform="rotate(180 131 117)" fill="#3B3C3E" fill-opacity="0.3"/>
<rect x="163" y="116" width="2" height="34" transform="rotate(180 163 116)" fill="#3B3C3E" fill-opacity="0.3"/>
<rect x="131" y="116" width="2" height="41" transform="rotate(180 131 116)" fill="#3B3C3E" fill-opacity="0.3"/>
<rect x="162" y="77" width="7" height="2" transform="rotate(180 162 77)" fill="#A27D3D"/>
<rect x="162" y="79" width="5" height="2" transform="rotate(180 162 79)" fill="#A27D3D"/>
<rect x="162" y="81" width="3" height="2" transform="rotate(180 162 81)" fill="#A27D3D"/>
<rect x="163" y="82" width="2" height="2" transform="rotate(180 163 82)" fill="#A27D3D"/>
<rect x="162" y="75" width="9" height="2" transform="rotate(180 162 75)" fill="#A27D3D"/>
<rect width="24" height="2" transform="matrix(1 0 0 -1 129 75)" fill="#3B3C3E" fill-opacity="0.3"/>
<rect x="155" y="76" width="2" height="2" transform="rotate(180 155 76)" fill="#3B3C3E" fill-opacity="0.3"/>
<rect x="153" y="82" width="1" height="5" transform="rotate(180 153 82)" fill="#3B3C3E" fill-opacity="0.3"/>
<rect width="5" height="1" transform="matrix(-1 0 0 1 158 82)" fill="#3B3C3E" fill-opacity="0.3"/>
<rect width="16" height="2" transform="matrix(-1 0 0 1 150 80)" fill="#3B3C3E" fill-opacity="0.22"/>
<rect width="16" height="2" transform="matrix(-1 0 0 1 150 91)" fill="#3B3C3E" fill-opacity="0.22"/>
<rect width="16" height="2" transform="matrix(-1 0 0 1 150 101)" fill="#3B3C3E" fill-opacity="0.22"/>
<rect width="24" height="2" transform="matrix(-1 0 0 1 158 86)" fill="#3B3C3E" fill-opacity="0.22"/>
<rect width="24" height="2" transform="matrix(-1 0 0 1 158 96)" fill="#3B3C3E" fill-opacity="0.22"/>
<rect width="5" height="2" transform="matrix(-1 0 0 1 158 82)" fill="#3B3C3E" fill-opacity="0.3"/>
<rect x="157" y="78" width="2" height="2" transform="rotate(180 157 78)" fill="#3B3C3E" fill-opacity="0.3"/>
<rect x="159" y="80" width="2" height="2" transform="rotate(180 159 80)" fill="#3B3C3E" fill-opacity="0.3"/>
<rect x="161" y="82" width="2" height="2" transform="rotate(180 161 82)" fill="#3B3C3E" fill-opacity="0.3"/>
</g>
<defs>
<clipPath id="clip0_11_22590">
<rect width="209" height="154" fill="white"/>
</clipPath>
</defs>
</svg>
