<svg width="9" height="8" viewBox="0 0 9 8" fill="none" xmlns="http://www.w3.org/2000/svg">
<rect width="9" height="1" fill="#3B3C3E"/>
<rect x="2" y="7" width="5" height="1" fill="#3B3C3E"/>
<rect x="1" y="1" width="7" height="5" fill="#CFCFCF"/>
<rect width="5" height="1" transform="matrix(1 0 0 -1 2 7)" fill="#CFCFCF"/>
<rect width="1" height="5" transform="matrix(-1 0 0 1 1 1)" fill="#3B3C3E"/>
<rect width="1" height="5" transform="matrix(-1 0 0 1 9 1)" fill="#3B3C3E"/>
<rect x="8" y="7" width="1" height="1" transform="rotate(180 8 7)" fill="#3B3C3E"/>
<rect x="2" y="7" width="1" height="1" transform="rotate(180 2 7)" fill="#3B3C3E"/>
<rect x="8" y="5" width="7" height="2" transform="rotate(180 8 5)" fill="#FF0000"/>
<rect x="3" y="1" width="3" height="6" fill="#FF0000"/>
<rect x="3" y="1" width="3" height="6" fill="#FF0000"/>
<rect x="3" y="1" width="3" height="6" fill="#FF0000"/>
<rect x="3" y="1" width="3" height="6" fill="#FF0000"/>
<rect x="3" y="1" width="3" height="6" fill="#FF0000"/>
<rect x="3" y="3" width="3" height="2" fill="#3B3C3E" fill-opacity="0.66"/>
</svg>
