<svg width="18" height="16" viewBox="0 0 18 16" fill="none" xmlns="http://www.w3.org/2000/svg">
<rect width="18" height="2" fill="#3B3C3E"/>
<rect x="4" y="14" width="10" height="2" fill="#3B3C3E"/>
<rect x="2" y="2" width="14" height="10" fill="#34C759"/>
<rect x="8" y="3" width="2" height="2" fill="#E6E6E6"/>
<rect x="4" y="6" width="10" height="0.5" fill="#E6E6E6"/>
<rect width="10" height="2" transform="matrix(1 0 0 -1 4 14)" fill="#34C759"/>
<rect width="2" height="10" transform="matrix(-1 0 0 1 2 2)" fill="#3B3C3E"/>
<rect width="2" height="10" transform="matrix(-1 0 0 1 18 2)" fill="#3B3C3E"/>
<rect x="16" y="14" width="2" height="2" transform="rotate(180 16 14)" fill="#3B3C3E"/>
<rect x="4" y="14" width="2" height="2" transform="rotate(180 4 14)" fill="#3B3C3E"/>
<rect x="10" y="3.5" width="0.5" height="1" fill="#E6E6E6"/>
<rect x="7.5" y="3.5" width="0.5" height="1" fill="#E6E6E6"/>
<rect x="8.5" y="5" width="1" height="0.5" fill="#E6E6E6"/>
<rect x="8.5" y="2.5" width="1" height="0.5" fill="#E6E6E6"/>
<rect x="4" y="8" width="4.5" height="0.5" fill="#E6E6E6"/>
<rect width="0.5" height="0.5" transform="matrix(-1 0 0 1 9 9.5)" fill="#E6E6E6"/>
<rect width="0.5" height="0.5" transform="matrix(-1 0 0 1 8.5 10)" fill="#E6E6E6"/>
<rect width="0.5" height="0.5" transform="matrix(-1 0 0 1 8 10.5)" fill="#E6E6E6"/>
<rect width="0.5" height="0.5" transform="matrix(-1 0 0 1 7.5 11)" fill="#E6E6E6"/>
<rect width="0.5" height="0.5" transform="matrix(-1 0 0 1 7 11.5)" fill="#E6E6E6"/>
<rect width="0.5" height="0.5" transform="matrix(-1 0 0 1 6.5 12)" fill="#E6E6E6"/>
<rect width="0.5" height="0.5" transform="matrix(-1 0 0 1 5.5 11)" fill="#E6E6E6"/>
<rect width="0.5" height="0.5" transform="matrix(-1 0 0 1 8 8.5)" fill="#E6E6E6"/>
<rect width="0.5" height="0.5" transform="matrix(-1 0 0 1 7.5 9)" fill="#E6E6E6"/>
<rect width="0.5" height="0.5" transform="matrix(-1 0 0 1 7 9.5)" fill="#E6E6E6"/>
<rect width="0.5" height="0.5" transform="matrix(-1 0 0 1 6.5 10)" fill="#E6E6E6"/>
<rect width="0.5" height="0.5" transform="matrix(-1 0 0 1 6 10.5)" fill="#E6E6E6"/>
<rect width="4.5" height="0.5" transform="matrix(-1 0 0 1 14 8)" fill="#E6E6E6"/>
<rect x="9" y="9.5" width="0.5" height="0.5" fill="#E6E6E6"/>
<rect x="9.5" y="10" width="0.5" height="0.5" fill="#E6E6E6"/>
<rect x="10" y="10.5" width="0.5" height="0.5" fill="#E6E6E6"/>
<rect x="10.5" y="11" width="0.5" height="0.5" fill="#E6E6E6"/>
<rect x="11" y="11.5" width="0.5" height="0.5" fill="#E6E6E6"/>
<rect x="11.5" y="12" width="0.5" height="0.5" fill="#E6E6E6"/>
<rect x="12.5" y="11" width="0.5" height="0.5" fill="#E6E6E6"/>
<rect x="10" y="8.5" width="0.5" height="0.5" fill="#E6E6E6"/>
<rect x="10.5" y="9" width="0.5" height="0.5" fill="#E6E6E6"/>
<rect x="11" y="9.5" width="0.5" height="0.5" fill="#E6E6E6"/>
<rect x="11.5" y="10" width="0.5" height="0.5" fill="#E6E6E6"/>
<rect x="12" y="10.5" width="0.5" height="0.5" fill="#E6E6E6"/>
</svg>
