<svg width="128" height="128" viewBox="0 0 128 128" fill="none" xmlns="http://www.w3.org/2000/svg">
<rect x="19" y="19" width="89" height="73" fill="#D3C7AD"/>
<rect x="22" y="92" width="4" height="4" fill="#3D3D3D"/>
<rect x="19" y="89" width="4" height="4" fill="#3D3D3D"/>
<rect x="22" y="16" width="84" height="4" fill="#3D3D3D"/>
<rect x="19" y="19" width="4" height="4" fill="#3D3D3D"/>
<rect x="105" y="19" width="4" height="4" fill="#3D3D3D"/>
<rect x="16" y="22" width="4" height="68" fill="#3D3D3D"/>
<rect x="105" y="89" width="4" height="4" fill="#3D3D3D"/>
<rect x="108" y="22" width="4" height="68" fill="#3D3D3D"/>
<rect x="26" y="92" width="80" height="4" fill="#3D3D3D"/>
<rect width="7" height="3" transform="matrix(1 0 0 -1 63 102)" fill="#D3C7AD"/>
<rect x="63" y="102" width="4" height="5" fill="#D3C7AD"/>
<rect width="13" height="7" transform="matrix(1 0 0 -1 62 99)" fill="#D3C7AD"/>
<rect x="61" y="107" width="4" height="4" fill="#3D3D3D"/>
<rect x="59" y="92" width="4" height="20" fill="#3D3D3D"/>
<rect x="64" y="104" width="4" height="4" fill="#3D3D3D"/>
<rect x="67" y="101" width="4" height="4" fill="#3D3D3D"/>
<rect x="70" y="98" width="4" height="4" fill="#3D3D3D"/>
<rect x="73" y="95" width="4" height="4" fill="#3D3D3D"/>
<rect width="47" height="7" transform="matrix(1 0 0 -1 40 73)" fill="#3D3D3D" fill-opacity="0.33"/>
<rect x="44" y="73" width="39" height="4" fill="#3D3D3D" fill-opacity="0.33"/>
<rect width="27" height="3" transform="matrix(1 0 0 -1 50 80)" fill="#3D3D3D" fill-opacity="0.33"/>
<rect width="41" height="18" transform="matrix(1 0 0 -1 43 65)" fill="#414451"/>
<rect x="45" y="44" width="37" height="3" fill="#414451"/>
<rect width="33" height="3" transform="matrix(1 0 0 -1 47 44)" fill="#414451"/>
<rect width="1" height="2" transform="matrix(1 0 0 -1 49 41)" fill="#414451"/>
<rect width="1" height="2" transform="matrix(1 0 0 -1 77 41)" fill="#414451"/>
<rect width="23" height="3" transform="matrix(-1 0 0 1 75 32)" fill="#3D3D3D"/>
<rect x="42" y="43" width="3" height="4" fill="#3D3D3D"/>
<rect x="42" y="65" width="3" height="3" fill="#3D3D3D"/>
<rect x="44" y="67" width="3" height="3" fill="#3D3D3D"/>
<rect width="3" height="3" transform="matrix(-1 0 0 1 85 65)" fill="#3D3D3D"/>
<rect width="3" height="3" transform="matrix(-1 0 0 1 83 67)" fill="#3D3D3D"/>
<rect x="46" y="68" width="35" height="3" fill="#3D3D3D"/>
<rect x="44" y="40" width="3" height="4" fill="#3D3D3D"/>
<rect x="46" y="38" width="3" height="3" fill="#3D3D3D"/>
<rect x="47" y="36" width="3" height="3" fill="#3D3D3D"/>
<rect x="49" y="34" width="3" height="3" fill="#3D3D3D"/>
<rect x="40" y="46" width="3" height="20" fill="#3D3D3D"/>
<rect width="3" height="4" transform="matrix(-1 0 0 1 85 43)" fill="#3D3D3D"/>
<rect width="3" height="4" transform="matrix(-1 0 0 1 83 40)" fill="#3D3D3D"/>
<rect width="3" height="3" transform="matrix(-1 0 0 1 81 38)" fill="#3D3D3D"/>
<rect width="3" height="3" transform="matrix(-1 0 0 1 80 36)" fill="#3D3D3D"/>
<rect width="3" height="3" transform="matrix(-1 0 0 1 78 34)" fill="#3D3D3D"/>
<rect width="3" height="20" transform="matrix(-1 0 0 1 87 46)" fill="#3D3D3D"/>
<rect x="50" y="56" width="27" height="11" fill="#4D515F"/>
<rect width="33" height="1" transform="matrix(1 0 0 -1 47 68)" fill="#4D515F"/>
<rect x="48" y="58" width="2" height="9" fill="#4D515F"/>
<rect x="46" y="62" width="2" height="5" fill="#4D515F"/>
<rect x="45" y="65" width="1" height="2" fill="#4D515F"/>
<rect width="2" height="9" transform="matrix(-1 0 0 1 79 58)" fill="#4D515F"/>
<rect width="2" height="5" transform="matrix(-1 0 0 1 81 62)" fill="#4D515F"/>
<rect width="1" height="2" transform="matrix(-1 0 0 1 82 65)" fill="#4D515F"/>
<rect x="50" y="37" width="2" height="19" fill="#595E6F"/>
<rect x="75" y="37" width="2" height="19" fill="#595E6F"/>
<rect width="23" height="2" transform="matrix(1 0 0 -1 52 58)" fill="#595E6F"/>
<rect x="52" y="57" width="1" height="1" transform="rotate(180 52 57)" fill="#595E6F" fill-opacity="0.7"/>
<rect x="76" y="57" width="1" height="1" transform="rotate(180 76 57)" fill="#595E6F" fill-opacity="0.7"/>
<rect x="76" y="37" width="1" height="1" transform="rotate(180 76 37)" fill="#595E6F" fill-opacity="0.7"/>
<rect x="52" y="37" width="1" height="1" transform="rotate(180 52 37)" fill="#595E6F" fill-opacity="0.7"/>
<rect width="23" height="21" transform="matrix(1 0 0 -1 52 56)" fill="#595E6F"/>
<rect x="58" y="39.6842" width="3" height="12.6316" fill="#D9D9D9"/>
<rect x="59" y="38.8421" width="9" height="2.52632" fill="#D9D9D9"/>
<rect width="2" height="0.842105" transform="matrix(-1 0 0 1 59 38.8421)" fill="#D9D9D9" fill-opacity="0.3"/>
<rect width="10" height="0.842105" transform="matrix(-1 0 0 1 68 38)" fill="#D9D9D9" fill-opacity="0.3"/>
<rect width="7" height="0.842105" transform="matrix(-1 0 0 1 68 41.3684)" fill="#D9D9D9" fill-opacity="0.3"/>
<rect x="68" y="38" width="1" height="4.21053" fill="#D9D9D9" fill-opacity="0.3"/>
<rect x="68" y="43.8947" width="1" height="4.21053" fill="#D9D9D9" fill-opacity="0.3"/>
<rect width="7" height="0.842105" transform="matrix(-1 0 0 1 68 43.8947)" fill="#D9D9D9" fill-opacity="0.3"/>
<rect width="7" height="0.842105" transform="matrix(-1 0 0 1 68 47.2632)" fill="#D9D9D9" fill-opacity="0.3"/>
<rect width="10" height="0.842105" transform="matrix(-1 0 0 1 68 53.1579)" fill="#D9D9D9" fill-opacity="0.3"/>
<rect width="7" height="0.842105" transform="matrix(-1 0 0 1 68 49.7895)" fill="#D9D9D9" fill-opacity="0.3"/>
<rect width="1" height="3.36842" transform="matrix(-1 0 0 1 62 48.1053)" fill="#D9D9D9" fill-opacity="0.3"/>
<rect width="1" height="4.21053" transform="matrix(-1 0 0 1 62 41.3684)" fill="#D9D9D9" fill-opacity="0.3"/>
<rect width="2" height="13.4737" transform="matrix(-1 0 0 1 59 39.6842)" fill="#D9D9D9" fill-opacity="0.3"/>
<rect width="1" height="4.21053" transform="matrix(-1 0 0 1 69 49.7895)" fill="#D9D9D9" fill-opacity="0.3"/>
<rect x="59" y="50.6316" width="9" height="2.52632" fill="#D9D9D9"/>
<rect x="61" y="44.7368" width="7" height="2.52632" fill="#D9D9D9"/>
</svg>
