<svg width="18" height="16" viewBox="0 0 18 16" fill="none" xmlns="http://www.w3.org/2000/svg">
<rect x="4" width="4" height="2" fill="#3B3C3E"/>
<rect x="2" y="2" width="2" height="2" fill="#3B3C3E"/>
<rect x="14" y="2" width="2" height="2" fill="#3B3C3E"/>
<rect x="16" y="4" width="2" height="4" fill="#3B3C3E"/>
<rect y="4" width="2" height="4" fill="#3B3C3E"/>
<rect x="14" y="4" width="2" height="4" fill="#E6E6E6"/>
<rect width="2" height="8" transform="matrix(-1 0 0 1 14 2)" fill="#E6E6E6"/>
<rect width="2" height="10" transform="matrix(-1 0 0 1 12 2)" fill="#E6E6E6"/>
<rect width="1" height="10" transform="matrix(-1 0 0 1 10 4)" fill="#E6E6E6"/>
<rect width="1" height="10" transform="matrix(-1 0 0 1 9 4)" fill="#FF383C"/>
<rect width="2" height="10" transform="matrix(-1 0 0 1 8 2)" fill="#FF383C"/>
<rect width="2" height="8" transform="matrix(-1 0 0 1 6 2)" fill="#FF383C"/>
<rect width="2" height="4" transform="matrix(-1 0 0 1 4 4)" fill="#FF383C"/>
<rect x="2" y="8" width="2" height="2" fill="#3B3C3E"/>
<rect x="4" y="10" width="2" height="2" fill="#3B3C3E"/>
<rect x="6" y="12" width="2" height="2" fill="#3B3C3E"/>
<rect x="8" y="14" width="2" height="2" fill="#3B3C3E"/>
<rect x="10" y="12" width="2" height="2" fill="#3B3C3E"/>
<rect x="12" y="10" width="2" height="2" fill="#3B3C3E"/>
<rect x="14" y="8" width="2" height="2" fill="#3B3C3E"/>
<rect x="10" width="4" height="2" fill="#3B3C3E"/>
<rect x="8" y="2" width="2" height="2" fill="#3B3C3E"/>
<rect x="12" y="2" width="2" height="2" fill="white" fill-opacity="0.3"/>
<rect x="14" y="4" width="2" height="2" fill="white" fill-opacity="0.3"/>
</svg>
