<svg width="9" height="8" viewBox="0 0 9 8" fill="none" xmlns="http://www.w3.org/2000/svg">
<rect x="2" width="2" height="1" fill="#3B3C3E"/>
<rect x="1" y="1" width="1" height="1" fill="#3B3C3E"/>
<rect x="7" y="1" width="1" height="1" fill="#3B3C3E"/>
<rect x="8" y="2" width="1" height="2" fill="#3B3C3E"/>
<rect y="2" width="1" height="2" fill="#3B3C3E"/>
<rect x="1" y="4" width="1" height="1" fill="#3B3C3E"/>
<rect x="2" y="5" width="1" height="1" fill="#3B3C3E"/>
<rect x="3" y="6" width="1" height="1" fill="#3B3C3E"/>
<rect x="4" y="7" width="1" height="1" fill="#3B3C3E"/>
<rect x="5" y="6" width="1" height="1" fill="#3B3C3E"/>
<rect x="6" y="5" width="1" height="1" fill="#3B3C3E"/>
<rect x="7" y="4" width="1" height="1" fill="#3B3C3E"/>
<rect x="5" width="2" height="1" fill="#3B3C3E"/>
<rect x="4" y="1" width="1" height="1" fill="#3B3C3E"/>
<rect x="6" y="1" width="1" height="1" fill="white" fill-opacity="0.3"/>
<rect x="7" y="2" width="1" height="1" fill="white" fill-opacity="0.3"/>
<rect x="2" y="1" width="1" height="1" fill="white" fill-opacity="0.3"/>
<rect x="1" y="2" width="1" height="1" fill="white" fill-opacity="0.3"/>
</svg>
