<svg width="816" height="488" viewBox="0 0 816 488" fill="none" xmlns="http://www.w3.org/2000/svg">
<rect x="16" y="472" width="392" height="12" fill="#4183A4"/>
<rect x="18" y="472" width="370" height="4" fill="#3B3C3E" fill-opacity="0.66"/>
<rect x="388" y="476" width="20" height="4" fill="#3B3C3E" fill-opacity="0.66"/>
<rect x="18" y="472" width="14" height="460" transform="rotate(180 18 472)" fill="#4183A4"/>
<rect width="8" height="8" transform="matrix(-1 0 0 1 16 472)" fill="#4183A4"/>
<rect x="18" y="12" width="386" height="4" fill="#D7D3AE"/>
<rect y="12" width="4" height="460" fill="#3B3C3E"/>
<rect x="12" y="480" width="372" height="4" fill="#3B3C3E"/>
<rect x="216" width="176" height="4" fill="#3B3C3E"/>
<rect x="22" y="8" width="374" height="4" fill="#D7D3AE"/>
<rect x="216" y="4" width="180" height="4" fill="#D7D3AE"/>
<rect x="26" y="4" width="190" height="4" fill="#3B3C3E"/>
<rect x="396" y="8" width="8" height="4" fill="#3B3C3E"/>
<rect x="14" y="16" width="394" height="448" fill="#D7D3AE"/>
<rect width="390" height="8" transform="matrix(1 0 0 -1 18 472)" fill="#D7D3AE"/>
<rect x="388" y="472" width="20" height="4" fill="#D7D3AE"/>
<rect x="404" y="12" width="4" height="4" fill="#3B3C3E"/>
<rect x="392" y="4" width="4" height="4" fill="#3B3C3E"/>
<rect x="4" y="8" width="18" height="4" fill="#3B3C3E"/>
<rect x="14" y="12" width="4" height="4" fill="#3B3C3E" fill-opacity="0.66"/>
<rect x="22" y="4" width="4" height="4" fill="#3B3C3E"/>
<rect x="8" y="476" width="4" height="4" fill="#3B3C3E"/>
<rect x="384" y="484" width="24" height="4" fill="#3B3C3E"/>
<path d="M4 472H8V476H4V472Z" fill="#3B3C3E"/>
<rect width="388" height="12" transform="matrix(1 0 0 -1 18 472)" fill="#3B3C3E" fill-opacity="0.22"/>
<rect x="388" y="472" width="20" height="4" fill="#3B3C3E" fill-opacity="0.22"/>
<rect width="9" height="4" transform="matrix(1 0 0 -1 22 460)" fill="#3B3C3E" fill-opacity="0.3"/>
<rect x="134.553" y="452" width="267.426" height="4" fill="#3B3C3E" fill-opacity="0.22"/>
<rect x="208.949" y="448" width="189.008" height="4" fill="#3B3C3E" fill-opacity="0.22"/>
<rect x="31" y="456" width="185.992" height="4" fill="#3B3C3E" fill-opacity="0.22"/>
<rect x="397.957" y="456" width="8.0429" height="4" fill="#3B3C3E" fill-opacity="0.22"/>
<rect x="216.992" y="456" width="180.965" height="4" fill="#3B3C3E" fill-opacity="0.22"/>
<rect width="103" height="4" transform="matrix(1 0 0 -1 31 456)" fill="#3B3C3E" fill-opacity="0.3"/>
<rect width="74" height="4" transform="matrix(1 0 0 -1 134 452)" fill="#3B3C3E" fill-opacity="0.3"/>
<rect width="4" height="452" transform="matrix(-1 0 0 1 22 12)" fill="#3B3C3E" fill-opacity="0.1"/>
<rect width="4" height="448" transform="matrix(-1 0 0 1 26 8)" fill="#3B3C3E" fill-opacity="0.3"/>
<rect x="398" y="448" width="4" height="4" fill="#3B3C3E" fill-opacity="0.3"/>
<rect x="402" y="452" width="4" height="4" fill="#3B3C3E" fill-opacity="0.3"/>
<rect x="208" y="444" width="188" height="4" fill="#3B3C3E" fill-opacity="0.3"/>
<rect width="6" height="440" transform="matrix(-1 0 0 1 408 12)" fill="#3B3C3E" fill-opacity="0.3"/>
<rect width="6" height="436" transform="matrix(-1 0 0 1 402 12)" fill="#3B3C3E" fill-opacity="0.22"/>
<rect width="4" height="436" transform="matrix(-1 0 0 1 396 8)" fill="#3B3C3E" fill-opacity="0.1"/>
<rect width="2" height="456" transform="matrix(-1 0 0 1 408 16)" fill="#3B3C3E" fill-opacity="0.3"/>
<rect x="201" y="456" width="188" height="4" fill="#3B3C3E" fill-opacity="0.1"/>
<rect x="122" y="460" width="79" height="4" fill="#3B3C3E" fill-opacity="0.1"/>
<rect x="14" y="464" width="4" height="8" fill="#3B3C3E" fill-opacity="0.66"/>
<rect x="10" y="16" width="4" height="448" fill="#3B3C3E" fill-opacity="0.66"/>
<rect width="392" height="12" transform="matrix(-1 0 0 1 800 472)" fill="#4183A4"/>
<rect width="370" height="4" transform="matrix(-1 0 0 1 798 472)" fill="#3B3C3E" fill-opacity="0.66"/>
<rect width="20" height="4" transform="matrix(-1 0 0 1 428 476)" fill="#3B3C3E" fill-opacity="0.66"/>
<rect width="14" height="460" transform="matrix(1 0 0 -1 798 472)" fill="#4183A4"/>
<rect x="800" y="472" width="8" height="8" fill="#4183A4"/>
<rect width="386" height="4" transform="matrix(-1 0 0 1 798 12)" fill="#D7D3AE"/>
<rect width="4" height="460" transform="matrix(-1 0 0 1 816 12)" fill="#3B3C3E"/>
<rect width="372" height="4" transform="matrix(-1 0 0 1 804 480)" fill="#3B3C3E"/>
<rect width="176" height="4" transform="matrix(-1 0 0 1 600 0)" fill="#3B3C3E"/>
<rect width="374" height="4" transform="matrix(-1 0 0 1 794 8)" fill="#D7D3AE"/>
<rect width="180" height="4" transform="matrix(-1 0 0 1 600 4)" fill="#D7D3AE"/>
<rect width="190" height="4" transform="matrix(-1 0 0 1 790 4)" fill="#3B3C3E"/>
<rect width="8" height="4" transform="matrix(-1 0 0 1 420 8)" fill="#3B3C3E"/>
<rect width="394" height="448" transform="matrix(-1 0 0 1 802 16)" fill="#D7D3AE"/>
<rect x="798" y="472" width="390" height="8" transform="rotate(180 798 472)" fill="#D7D3AE"/>
<rect width="20" height="4" transform="matrix(-1 0 0 1 428 472)" fill="#D7D3AE"/>
<rect width="4" height="4" transform="matrix(-1 0 0 1 412 12)" fill="#3B3C3E"/>
<rect width="4" height="4" transform="matrix(-1 0 0 1 424 4)" fill="#3B3C3E"/>
<rect width="18" height="4" transform="matrix(-1 0 0 1 812 8)" fill="#3B3C3E"/>
<rect width="4" height="4" transform="matrix(-1 0 0 1 802 12)" fill="#3B3C3E" fill-opacity="0.66"/>
<rect width="4" height="4" transform="matrix(-1 0 0 1 794 4)" fill="#3B3C3E"/>
<rect width="4" height="4" transform="matrix(-1 0 0 1 808 476)" fill="#3B3C3E"/>
<rect width="24" height="4" transform="matrix(-1 0 0 1 432 484)" fill="#3B3C3E"/>
<path d="M812 472H808V476H812V472Z" fill="#3B3C3E"/>
<rect x="798" y="472" width="388" height="12" transform="rotate(180 798 472)" fill="#3B3C3E" fill-opacity="0.22"/>
<rect width="20" height="4" transform="matrix(-1 0 0 1 428 472)" fill="#3B3C3E" fill-opacity="0.22"/>
<rect x="794" y="460" width="9" height="4" transform="rotate(180 794 460)" fill="#3B3C3E" fill-opacity="0.3"/>
<rect width="267.426" height="4" transform="matrix(-1 0 0 1 681.447 452)" fill="#3B3C3E" fill-opacity="0.22"/>
<rect width="189.008" height="4" transform="matrix(-1 0 0 1 607.051 448)" fill="#3B3C3E" fill-opacity="0.22"/>
<rect width="185.992" height="4" transform="matrix(-1 0 0 1 785 456)" fill="#3B3C3E" fill-opacity="0.22"/>
<rect width="8.0429" height="4" transform="matrix(-1 0 0 1 418.043 456)" fill="#3B3C3E" fill-opacity="0.22"/>
<rect width="180.965" height="4" transform="matrix(-1 0 0 1 599.008 456)" fill="#3B3C3E" fill-opacity="0.22"/>
<rect x="785" y="456" width="103" height="4" transform="rotate(180 785 456)" fill="#3B3C3E" fill-opacity="0.3"/>
<rect x="682" y="452" width="74" height="4" transform="rotate(180 682 452)" fill="#3B3C3E" fill-opacity="0.3"/>
<rect x="794" y="12" width="4" height="452" fill="#3B3C3E" fill-opacity="0.1"/>
<rect x="790" y="8" width="4" height="448" fill="#3B3C3E" fill-opacity="0.3"/>
<rect width="4" height="4" transform="matrix(-1 0 0 1 418 448)" fill="#3B3C3E" fill-opacity="0.3"/>
<rect width="4" height="4" transform="matrix(-1 0 0 1 414 452)" fill="#3B3C3E" fill-opacity="0.3"/>
<rect width="188" height="4" transform="matrix(-1 0 0 1 608 444)" fill="#3B3C3E" fill-opacity="0.3"/>
<rect x="408" y="12" width="6" height="440" fill="#3B3C3E" fill-opacity="0.3"/>
<rect x="414" y="12" width="6" height="436" fill="#3B3C3E" fill-opacity="0.22"/>
<rect x="420" y="8" width="4" height="436" fill="#3B3C3E" fill-opacity="0.1"/>
<rect x="408" y="16" width="2" height="456" fill="#3B3C3E" fill-opacity="0.3"/>
<rect width="188" height="4" transform="matrix(-1 0 0 1 615 456)" fill="#3B3C3E" fill-opacity="0.1"/>
<rect width="79" height="4" transform="matrix(-1 0 0 1 694 460)" fill="#3B3C3E" fill-opacity="0.1"/>
<rect width="4" height="8" transform="matrix(-1 0 0 1 802 464)" fill="#3B3C3E" fill-opacity="0.66"/>
<rect width="4" height="448" transform="matrix(-1 0 0 1 806 16)" fill="#3B3C3E" fill-opacity="0.66"/>
</svg>
