<svg width="200" height="145" viewBox="0 0 200 145" fill="none" xmlns="http://www.w3.org/2000/svg">
<rect x="50" y="125" width="100" height="16.6667" fill="#3B3C3E" fill-opacity="0.3"/>
<g clip-path="url(#clip0_288_47347)">
<rect width="50" height="50" transform="matrix(-1 0 0 1 150 86.1108)" fill="#996349"/>
<rect x="144.444" y="86.1108" width="44.4445" height="8.33334" transform="rotate(180 144.444 86.1108)" fill="#996349"/>
<rect x="133.333" y="77.7778" width="33.3334" height="5.55556" transform="rotate(180 133.333 77.7778)" fill="#996349"/>
<rect x="127.778" y="130.556" width="8.33334" height="58.3334" transform="rotate(180 127.778 130.556)" fill="#3B3C3E" fill-opacity="0.3"/>
<rect x="125" y="130.556" width="2.77778" height="58.3334" transform="rotate(180 125 130.556)" fill="#3B3C3E" fill-opacity="0.3"/>
<rect width="50" height="5.55556" transform="matrix(-1 0 0 1 150 130.556)" fill="#303F38"/>
<rect width="13.8889" height="5.55556" transform="matrix(-1 0 0 1 130.556 94.4443)" fill="#CDCDCD"/>
<rect x="130.556" y="111.111" width="13.8889" height="5.55556" transform="rotate(180 130.556 111.111)" fill="#3B3C3E" fill-opacity="0.3"/>
<rect width="13.8889" height="5.55556" transform="matrix(-1 0 0 1 130.556 105.556)" fill="#CDCDCD"/>
<rect width="5.55556" height="5.55556" transform="matrix(-1 0 0 1 116.667 100)" fill="#CDCDCD"/>
<rect width="5.55556" height="5.55556" transform="matrix(-1 0 0 1 136.111 100)" fill="#CDCDCD"/>
<rect width="13.8889" height="5.55556" transform="matrix(-1 0 0 1 130.556 100)" fill="#392C36"/>
<rect x="136.111" y="105.556" width="25" height="2.77778" transform="rotate(180 136.111 105.556)" fill="#3B3C3E" fill-opacity="0.3"/>
<rect width="2.77778" height="2.77778" transform="matrix(-1 0 0 1 133.333 97.2222)" fill="#3B3C3E" fill-opacity="0.66"/>
<rect width="2.77778" height="2.77778" transform="matrix(-1 0 0 1 116.667 97.2222)" fill="#3B3C3E" fill-opacity="0.66"/>
<rect width="2.77778" height="2.77778" transform="matrix(-1 0 0 1 116.667 105.556)" fill="#3B3C3E" fill-opacity="0.66"/>
<rect width="2.77778" height="2.77778" transform="matrix(-1 0 0 1 133.333 105.556)" fill="#3B3C3E" fill-opacity="0.66"/>
</g>
<g clip-path="url(#clip1_288_47347)">
<rect x="50" y="86.1108" width="50" height="50" fill="#996349"/>
<rect width="44.4445" height="8.33334" transform="matrix(1 0 0 -1 55.5557 86.1108)" fill="#996349"/>
<rect width="33.3334" height="5.55556" transform="matrix(1 0 0 -1 66.6665 77.7778)" fill="#996349"/>
<rect width="8.33334" height="58.3334" transform="matrix(1 0 0 -1 72.2222 130.556)" fill="#3B3C3E" fill-opacity="0.3"/>
<rect width="2.77778" height="58.3334" transform="matrix(1 0 0 -1 75 130.556)" fill="#3B3C3E" fill-opacity="0.3"/>
<rect x="50" y="130.556" width="50" height="5.55556" fill="#303F38"/>
<rect x="50" y="94.4443" width="33.3334" height="11.1111" fill="#686868"/>
<rect x="50" y="100" width="33.3334" height="5.55556" fill="#424242"/>
<rect x="83.3335" y="100" width="2.77778" height="2.77778" fill="#424242"/>
<rect x="83.3335" y="97.2222" width="2.77778" height="2.77778" fill="#686868"/>
<rect x="50" y="111.111" width="33.3334" height="11.1111" fill="#686868"/>
<rect x="50" y="116.667" width="33.3334" height="5.55556" fill="#424242"/>
<rect x="83.3335" y="116.667" width="2.77778" height="2.77778" fill="#424242"/>
<rect x="83.3335" y="113.889" width="2.77778" height="2.77778" fill="#686868"/>
</g>
<g clip-path="url(#clip2_288_47347)">
<rect x="8.3335" y="91.6665" width="5.55556" height="16.6667" fill="#575651"/>
<rect x="8.3335" y="108.333" width="8.33334" height="36.1111" fill="#575651"/>
<rect width="2.77778" height="5.55556" transform="matrix(-1 0 0 1 19.4443 133.333)" fill="#575651"/>
<rect x="13.8887" y="138.889" width="5.55556" height="5.55556" fill="#575651"/>
<rect x="75" y="5.55566" width="25" height="47.2223" fill="#847E88"/>
<rect x="44.4443" y="16.6665" width="25" height="47.2223" fill="#847E88"/>
<rect x="38.8892" y="27.7778" width="5.55556" height="38.8889" fill="#847E88"/>
<rect x="27.7778" y="27.7778" width="5.55556" height="50" fill="#847E88"/>
<rect x="19.4443" y="33.3335" width="8.33334" height="50" fill="#847E88"/>
<rect x="8.3335" y="44.4443" width="11.1111" height="41.6667" fill="#847E88"/>
<path d="M0 50H8.33334V94.4445H0V50Z" fill="#847E88"/>
<path d="M13.8889 83.3334H50V88.8889H13.8889V83.3334Z" fill="#847E88"/>
<rect x="19.4443" y="127.778" width="2.77778" height="16.6667" fill="#3A3E3C"/>
<rect x="16.6665" y="133.333" width="2.77778" height="5.55556" fill="#3B3C3E" fill-opacity="0.66"/>
<rect x="13.8887" y="94.4443" width="30.5556" height="5.55556" fill="#575651"/>
<rect x="30.5557" y="94.4443" width="13.8889" height="2.77778" fill="#3A3E3C"/>
<rect x="13.8887" y="97.2222" width="16.6667" height="2.77778" fill="#3A3E3C"/>
<rect x="11.1113" y="94.4443" width="33.3334" height="5.55556" fill="#3B3C3E" fill-opacity="0.3"/>
<rect x="16.6665" y="108.333" width="2.77778" height="25" fill="#3A3E3C"/>
<rect x="11.1113" y="100" width="2.77778" height="8.33334" fill="#3A3E3C"/>
<rect x="8.3335" y="91.6665" width="2.77778" height="8.33334" fill="#3A3E3C"/>
<rect x="8.3335" y="58.3335" width="2.77778" height="27.7778" fill="#3D3C38"/>
<rect x="33.3335" y="27.7778" width="5.55556" height="38.8889" fill="#3D3C38"/>
<rect x="11.1113" y="44.4443" width="2.77778" height="13.8889" fill="#3D3C38"/>
<rect y="44.4443" width="11.1111" height="5.55556" fill="#3D3C38"/>
<rect x="13.8887" y="38.8892" width="5.55556" height="5.55556" fill="#3D3C38"/>
<rect x="19.4443" y="33.3335" width="5.55556" height="5.55556" fill="#3D3C38"/>
<rect x="25" y="27.7778" width="5.55556" height="5.55556" fill="#3D3C38"/>
<rect x="30.5557" y="22.2222" width="13.8889" height="5.55556" fill="#3D3C38"/>
<rect x="44.4443" y="16.6665" width="13.8889" height="5.55556" fill="#3D3C38"/>
<rect x="58.3335" y="11.1113" width="11.1111" height="5.55556" fill="#3D3C38"/>
<rect x="66.6665" y="5.55566" width="11.1111" height="5.55556" fill="#3D3C38"/>
<rect x="77.7778" width="22.2222" height="5.55556" fill="#3D3C38"/>
<rect x="50" y="83.3335" width="5.55556" height="5.55556" fill="#3D3C38"/>
<rect x="44.4443" y="77.7778" width="5.55556" height="5.55556" fill="#3D3C38"/>
<rect x="38.8892" y="72.2222" width="5.55556" height="5.55556" fill="#3D3C38"/>
<rect x="33.3335" y="66.6665" width="5.55556" height="5.55556" fill="#3D3C38"/>
<rect x="13.8887" y="88.8892" width="30.5556" height="5.55556" fill="#575651"/>
<rect x="22.2222" y="100" width="22.2222" height="44.4445" fill="#575651"/>
<rect x="19.4443" y="100" width="5.55556" height="27.7778" fill="#575651"/>
<rect x="13.8887" y="100" width="5.55556" height="8.33334" fill="#575651"/>
<rect x="13.8887" y="83.3335" width="36.1111" height="5.55556" fill="#575651"/>
<rect width="5.55556" height="5.55556" transform="matrix(-1 0 0 1 13.8887 86.1113)" fill="#575651"/>
<rect y="94.4443" width="8.33334" height="50" fill="#575651"/>
<rect x="27.7778" y="77.7778" width="16.6667" height="5.55556" fill="#575651"/>
<rect x="33.3335" y="72.2222" width="5.55556" height="5.55556" fill="#575651"/>
<rect x="50" y="77.7778" width="5.55556" height="5.55556" fill="#575651"/>
<rect x="44.4443" y="63.8892" width="25" height="13.8889" fill="#575651"/>
<rect x="52.7778" y="58.3335" width="16.6667" height="5.55556" fill="#575651"/>
<rect x="75" y="52.7778" width="25" height="19.4445" fill="#575651"/>
<rect x="38.8892" y="66.6665" width="5.55556" height="5.55556" fill="#575651"/>
<rect x="69.4443" y="50" width="5.55556" height="22.2222" fill="#3D3C38"/>
<rect x="69.4443" y="11.1113" width="5.55556" height="38.8889" fill="#3D3C38"/>
<rect x="55.5557" y="77.7778" width="13.8889" height="5.55556" fill="#3D3C38"/>
<rect x="69.4443" y="72.2222" width="30.5556" height="5.55556" fill="#3D3C38"/>
<rect x="44.4443" y="88.8892" width="5.55556" height="55.5556" fill="#3D3C38"/>
<rect x="5.55566" y="52.7778" width="2.77778" height="38.8889" fill="#3B3C3E" fill-opacity="0.3"/>
<rect x="30.5557" y="27.7778" width="2.77778" height="50" fill="#3B3C3E" fill-opacity="0.3"/>
<rect x="27.7778" y="38.8892" width="2.77778" height="30.5556" fill="#3B3C3E" fill-opacity="0.3"/>
<rect x="66.6665" y="16.6665" width="2.77778" height="41.6667" fill="#3B3C3E" fill-opacity="0.3"/>
<rect x="63.8892" y="22.2222" width="2.77778" height="30.5556" fill="#3B3C3E" fill-opacity="0.3"/>
<rect y="50" width="2.77778" height="8.33334" fill="#5A595A"/>
<rect y="86.1113" width="2.77778" height="8.33334" fill="#5A595A"/>
<rect x="2.77783" y="50" width="2.77778" height="5.55556" fill="#5A595A"/>
<rect x="2.77783" y="91.6665" width="5.55556" height="2.77778" fill="#5A595A"/>
<rect x="8.3335" y="55.5557" width="2.77778" height="2.77778" fill="#3B3C3E" fill-opacity="0.3"/>
<rect x="2.77783" y="58.3335" width="2.77778" height="27.7778" fill="#3B3C3E" fill-opacity="0.3"/>
<rect y="138.889" width="19.4445" height="5.55556" fill="#343935"/>
<rect x="22.2222" y="138.889" width="22.2222" height="5.55556" fill="#343935"/>
<rect x="91.6665" y="13.8887" width="8.33334" height="30.5556" fill="#3B3C3E" fill-opacity="0.1"/>
<rect x="86.1113" y="16.6665" width="5.55556" height="22.2222" fill="#3B3C3E" fill-opacity="0.1"/>
<rect x="75" y="50" width="25" height="5.55556" fill="#3B3C3E" fill-opacity="0.22"/>
<rect x="52.7778" y="55.5557" width="16.6667" height="5.55556" fill="#3B3C3E" fill-opacity="0.22"/>
<rect x="58.3335" y="16.6665" width="11.1111" height="5.55556" fill="#3B3C3E" fill-opacity="0.22"/>
<rect x="44.4443" y="22.2222" width="13.8889" height="5.55556" fill="#3B3C3E" fill-opacity="0.22"/>
<rect x="38.8892" y="27.7778" width="5.55556" height="5.55556" fill="#3B3C3E" fill-opacity="0.22"/>
<rect x="25" y="33.3335" width="8.33334" height="5.55556" fill="#3B3C3E" fill-opacity="0.22"/>
<rect x="19.4443" y="38.8892" width="8.33334" height="5.55556" fill="#3B3C3E" fill-opacity="0.22"/>
<rect x="13.8887" y="44.4443" width="8.33334" height="5.55556" fill="#3B3C3E" fill-opacity="0.22"/>
<rect x="5.55566" y="44.4443" width="11.1111" height="8.33334" fill="#3B3C3E" fill-opacity="0.22"/>
<rect x="44.4443" y="61.1113" width="5.55556" height="5.55556" fill="#3B3C3E" fill-opacity="0.22"/>
<rect x="38.8892" y="63.8892" width="5.55556" height="5.55556" fill="#3B3C3E" fill-opacity="0.22"/>
<rect x="27.7778" y="75" width="5.55556" height="5.55556" fill="#3B3C3E" fill-opacity="0.22"/>
<rect x="13.8887" y="80.5557" width="13.8889" height="5.55556" fill="#3B3C3E" fill-opacity="0.22"/>
<rect y="88.8892" width="13.8889" height="5.55556" fill="#3B3C3E" fill-opacity="0.3"/>
<rect x="41.6665" y="63.8892" width="2.77778" height="2.77778" fill="#3B3C3E" fill-opacity="0.22"/>
<rect x="50" y="61.1113" width="2.77778" height="2.77778" fill="#3B3C3E" fill-opacity="0.22"/>
<rect x="66.6665" y="55.5557" width="2.77778" height="2.77778" fill="#3B3C3E" fill-opacity="0.22"/>
<rect x="50" y="58.3335" width="5.55556" height="8.33334" fill="#3B3C3E" fill-opacity="0.22"/>
<rect y="97.2222" width="2.77778" height="11.1111" fill="#3A3E3C"/>
<rect x="2.77783" y="108.333" width="2.77778" height="5.55556" fill="#3A3E3C"/>
<rect y="113.889" width="2.77778" height="22.2222" fill="#3A3E3C"/>
<rect x="19.4443" y="111.111" width="2.77778" height="16.6667" fill="#3B3C3E" fill-opacity="0.22"/>
<rect x="13.8887" y="102.778" width="2.77778" height="8.33334" fill="#3B3C3E" fill-opacity="0.22"/>
<rect y="94.4443" width="5.55556" height="44.4445" fill="#3B3C3E" fill-opacity="0.22"/>
</g>
<g clip-path="url(#clip3_288_47347)">
<rect width="5.55556" height="16.6667" transform="matrix(-1 0 0 1 191.667 91.6665)" fill="#575651"/>
<rect width="8.33334" height="36.1111" transform="matrix(-1 0 0 1 191.667 108.333)" fill="#575651"/>
<rect x="180.556" y="133.333" width="2.77778" height="5.55556" fill="#575651"/>
<rect width="5.55556" height="5.55556" transform="matrix(-1 0 0 1 186.111 138.889)" fill="#575651"/>
<rect width="25" height="47.2223" transform="matrix(-1 0 0 1 125 5.55566)" fill="#847E88"/>
<rect width="25" height="47.2223" transform="matrix(-1 0 0 1 155.556 16.6665)" fill="#847E88"/>
<rect width="5.55556" height="38.8889" transform="matrix(-1 0 0 1 161.111 27.7778)" fill="#847E88"/>
<rect width="5.55556" height="50" transform="matrix(-1 0 0 1 172.222 27.7778)" fill="#847E88"/>
<rect width="8.33334" height="50" transform="matrix(-1 0 0 1 180.556 33.3335)" fill="#847E88"/>
<rect width="11.1111" height="41.6667" transform="matrix(-1 0 0 1 191.667 44.4443)" fill="#847E88"/>
<path d="M200 50H191.667V94.4445H200V50Z" fill="#847E88"/>
<path d="M186.111 83.3334H150V88.8889H186.111V83.3334Z" fill="#847E88"/>
<rect width="2.77778" height="16.6667" transform="matrix(-1 0 0 1 180.556 127.778)" fill="#3A3E3C"/>
<rect width="2.77778" height="5.55556" transform="matrix(-1 0 0 1 183.333 133.333)" fill="#3B3C3E" fill-opacity="0.66"/>
<rect width="30.5556" height="5.55556" transform="matrix(-1 0 0 1 186.111 94.4443)" fill="#575651"/>
<rect width="13.8889" height="2.77778" transform="matrix(-1 0 0 1 169.444 94.4443)" fill="#3A3E3C"/>
<rect width="16.6667" height="2.77778" transform="matrix(-1 0 0 1 186.111 97.2222)" fill="#3A3E3C"/>
<rect width="33.3334" height="5.55556" transform="matrix(-1 0 0 1 188.889 94.4443)" fill="#3B3C3E" fill-opacity="0.3"/>
<rect width="2.77778" height="25" transform="matrix(-1 0 0 1 183.333 108.333)" fill="#3A3E3C"/>
<rect width="2.77778" height="8.33334" transform="matrix(-1 0 0 1 188.889 100)" fill="#3A3E3C"/>
<rect width="2.77778" height="8.33334" transform="matrix(-1 0 0 1 191.667 91.6665)" fill="#3A3E3C"/>
<rect width="2.77778" height="27.7778" transform="matrix(-1 0 0 1 191.667 58.3335)" fill="#3D3C38"/>
<rect width="5.55556" height="38.8889" transform="matrix(-1 0 0 1 166.667 27.7778)" fill="#3D3C38"/>
<rect width="2.77778" height="13.8889" transform="matrix(-1 0 0 1 188.889 44.4443)" fill="#3D3C38"/>
<rect width="11.1111" height="5.55556" transform="matrix(-1 0 0 1 200 44.4443)" fill="#3D3C38"/>
<rect width="5.55556" height="5.55556" transform="matrix(-1 0 0 1 186.111 38.8892)" fill="#3D3C38"/>
<rect width="5.55556" height="5.55556" transform="matrix(-1 0 0 1 180.556 33.3335)" fill="#3D3C38"/>
<rect width="5.55556" height="5.55556" transform="matrix(-1 0 0 1 175 27.7778)" fill="#3D3C38"/>
<rect width="13.8889" height="5.55556" transform="matrix(-1 0 0 1 169.444 22.2222)" fill="#3D3C38"/>
<rect width="13.8889" height="5.55556" transform="matrix(-1 0 0 1 155.556 16.6665)" fill="#3D3C38"/>
<rect width="11.1111" height="5.55556" transform="matrix(-1 0 0 1 141.667 11.1113)" fill="#3D3C38"/>
<rect width="11.1111" height="5.55556" transform="matrix(-1 0 0 1 133.333 5.55566)" fill="#3D3C38"/>
<rect width="22.2222" height="5.55556" transform="matrix(-1 0 0 1 122.222 0)" fill="#3D3C38"/>
<rect width="5.55556" height="5.55556" transform="matrix(-1 0 0 1 150 83.3335)" fill="#3D3C38"/>
<rect width="5.55556" height="5.55556" transform="matrix(-1 0 0 1 155.556 77.7778)" fill="#3D3C38"/>
<rect width="5.55556" height="5.55556" transform="matrix(-1 0 0 1 161.111 72.2222)" fill="#3D3C38"/>
<rect width="5.55556" height="5.55556" transform="matrix(-1 0 0 1 166.667 66.6665)" fill="#3D3C38"/>
<rect width="30.5556" height="5.55556" transform="matrix(-1 0 0 1 186.111 88.8892)" fill="#575651"/>
<rect width="22.2222" height="44.4445" transform="matrix(-1 0 0 1 177.778 100)" fill="#575651"/>
<rect width="5.55556" height="27.7778" transform="matrix(-1 0 0 1 180.556 100)" fill="#575651"/>
<rect width="5.55556" height="8.33334" transform="matrix(-1 0 0 1 186.111 100)" fill="#575651"/>
<rect width="36.1111" height="5.55556" transform="matrix(-1 0 0 1 186.111 83.3335)" fill="#575651"/>
<rect x="186.111" y="86.1113" width="5.55556" height="5.55556" fill="#575651"/>
<rect width="8.33334" height="50" transform="matrix(-1 0 0 1 200 94.4443)" fill="#575651"/>
<rect width="16.6667" height="5.55556" transform="matrix(-1 0 0 1 172.222 77.7778)" fill="#575651"/>
<rect width="5.55556" height="5.55556" transform="matrix(-1 0 0 1 166.667 72.2222)" fill="#575651"/>
<rect width="5.55556" height="5.55556" transform="matrix(-1 0 0 1 150 77.7778)" fill="#575651"/>
<rect width="25" height="13.8889" transform="matrix(-1 0 0 1 155.556 63.8892)" fill="#575651"/>
<rect width="16.6667" height="5.55556" transform="matrix(-1 0 0 1 147.222 58.3335)" fill="#575651"/>
<rect width="25" height="19.4445" transform="matrix(-1 0 0 1 125 52.7778)" fill="#575651"/>
<rect width="5.55556" height="5.55556" transform="matrix(-1 0 0 1 161.111 66.6665)" fill="#575651"/>
<rect width="5.55556" height="22.2222" transform="matrix(-1 0 0 1 130.556 50)" fill="#3D3C38"/>
<rect width="5.55556" height="38.8889" transform="matrix(-1 0 0 1 130.556 11.1113)" fill="#3D3C38"/>
<rect width="13.8889" height="5.55556" transform="matrix(-1 0 0 1 144.444 77.7778)" fill="#3D3C38"/>
<rect width="30.5556" height="5.55556" transform="matrix(-1 0 0 1 130.556 72.2222)" fill="#3D3C38"/>
<rect width="5.55556" height="55.5556" transform="matrix(-1 0 0 1 155.556 88.8892)" fill="#3D3C38"/>
<rect width="2.77778" height="38.8889" transform="matrix(-1 0 0 1 194.444 52.7778)" fill="#3B3C3E" fill-opacity="0.3"/>
<rect width="2.77778" height="50" transform="matrix(-1 0 0 1 169.444 27.7778)" fill="#3B3C3E" fill-opacity="0.3"/>
<rect width="2.77778" height="30.5556" transform="matrix(-1 0 0 1 172.222 38.8892)" fill="#3B3C3E" fill-opacity="0.3"/>
<rect width="2.77778" height="41.6667" transform="matrix(-1 0 0 1 133.333 16.6665)" fill="#3B3C3E" fill-opacity="0.3"/>
<rect width="2.77778" height="30.5556" transform="matrix(-1 0 0 1 136.111 22.2222)" fill="#3B3C3E" fill-opacity="0.3"/>
<rect width="2.77778" height="8.33334" transform="matrix(-1 0 0 1 200 50)" fill="#5A595A"/>
<rect width="2.77778" height="8.33334" transform="matrix(-1 0 0 1 200 86.1113)" fill="#5A595A"/>
<rect width="2.77778" height="5.55556" transform="matrix(-1 0 0 1 197.222 50)" fill="#5A595A"/>
<rect width="5.55556" height="2.77778" transform="matrix(-1 0 0 1 197.222 91.6665)" fill="#5A595A"/>
<rect width="2.77778" height="2.77778" transform="matrix(-1 0 0 1 191.667 55.5557)" fill="#3B3C3E" fill-opacity="0.3"/>
<rect width="2.77778" height="27.7778" transform="matrix(-1 0 0 1 197.222 58.3335)" fill="#3B3C3E" fill-opacity="0.3"/>
<rect width="19.4445" height="5.55556" transform="matrix(-1 0 0 1 200 138.889)" fill="#343935"/>
<rect width="22.2222" height="5.55556" transform="matrix(-1 0 0 1 177.778 138.889)" fill="#343935"/>
<rect width="8.33334" height="30.5556" transform="matrix(-1 0 0 1 108.333 13.8887)" fill="#3B3C3E" fill-opacity="0.1"/>
<rect width="5.55556" height="22.2222" transform="matrix(-1 0 0 1 113.889 16.6665)" fill="#3B3C3E" fill-opacity="0.1"/>
<rect width="25" height="5.55556" transform="matrix(-1 0 0 1 125 50)" fill="#3B3C3E" fill-opacity="0.22"/>
<rect width="16.6667" height="5.55556" transform="matrix(-1 0 0 1 147.222 55.5557)" fill="#3B3C3E" fill-opacity="0.22"/>
<rect width="11.1111" height="5.55556" transform="matrix(-1 0 0 1 141.667 16.6665)" fill="#3B3C3E" fill-opacity="0.22"/>
<rect width="13.8889" height="5.55556" transform="matrix(-1 0 0 1 155.556 22.2222)" fill="#3B3C3E" fill-opacity="0.22"/>
<rect width="5.55556" height="5.55556" transform="matrix(-1 0 0 1 161.111 27.7778)" fill="#3B3C3E" fill-opacity="0.22"/>
<rect width="8.33334" height="5.55556" transform="matrix(-1 0 0 1 175 33.3335)" fill="#3B3C3E" fill-opacity="0.22"/>
<rect width="8.33334" height="5.55556" transform="matrix(-1 0 0 1 180.556 38.8892)" fill="#3B3C3E" fill-opacity="0.22"/>
<rect width="8.33334" height="5.55556" transform="matrix(-1 0 0 1 186.111 44.4443)" fill="#3B3C3E" fill-opacity="0.22"/>
<rect width="11.1111" height="8.33334" transform="matrix(-1 0 0 1 194.444 44.4443)" fill="#3B3C3E" fill-opacity="0.22"/>
<rect width="5.55556" height="5.55556" transform="matrix(-1 0 0 1 155.556 61.1113)" fill="#3B3C3E" fill-opacity="0.22"/>
<rect width="5.55556" height="5.55556" transform="matrix(-1 0 0 1 161.111 63.8892)" fill="#3B3C3E" fill-opacity="0.22"/>
<rect width="5.55556" height="5.55556" transform="matrix(-1 0 0 1 172.222 75)" fill="#3B3C3E" fill-opacity="0.22"/>
<rect width="13.8889" height="5.55556" transform="matrix(-1 0 0 1 186.111 80.5557)" fill="#3B3C3E" fill-opacity="0.22"/>
<rect width="13.8889" height="5.55556" transform="matrix(-1 0 0 1 200 88.8892)" fill="#3B3C3E" fill-opacity="0.3"/>
<rect width="2.77778" height="2.77778" transform="matrix(-1 0 0 1 158.333 63.8892)" fill="#3B3C3E" fill-opacity="0.22"/>
<rect width="2.77778" height="2.77778" transform="matrix(-1 0 0 1 150 61.1113)" fill="#3B3C3E" fill-opacity="0.22"/>
<rect width="2.77778" height="2.77778" transform="matrix(-1 0 0 1 133.333 55.5557)" fill="#3B3C3E" fill-opacity="0.22"/>
<rect width="5.55556" height="8.33334" transform="matrix(-1 0 0 1 150 58.3335)" fill="#3B3C3E" fill-opacity="0.22"/>
<rect width="2.77778" height="11.1111" transform="matrix(-1 0 0 1 200 97.2222)" fill="#3A3E3C"/>
<rect width="2.77778" height="5.55556" transform="matrix(-1 0 0 1 197.222 108.333)" fill="#3A3E3C"/>
<rect width="2.77778" height="22.2222" transform="matrix(-1 0 0 1 200 113.889)" fill="#3A3E3C"/>
<rect width="2.77778" height="16.6667" transform="matrix(-1 0 0 1 180.556 111.111)" fill="#3B3C3E" fill-opacity="0.22"/>
<rect width="2.77778" height="8.33334" transform="matrix(-1 0 0 1 186.111 102.778)" fill="#3B3C3E" fill-opacity="0.22"/>
<rect width="5.55556" height="44.4445" transform="matrix(-1 0 0 1 200 94.4443)" fill="#3B3C3E" fill-opacity="0.22"/>
</g>
<defs>
<clipPath id="clip0_288_47347">
<rect width="52.7778" height="75.0001" fill="white" transform="matrix(-1 0 0 1 152.778 66.6665)"/>
</clipPath>
<clipPath id="clip1_288_47347">
<rect width="52.7778" height="75.0001" fill="white" transform="translate(47.2222 66.6665)"/>
</clipPath>
<clipPath id="clip2_288_47347">
<rect width="100" height="144.445" fill="white"/>
</clipPath>
<clipPath id="clip3_288_47347">
<rect width="100" height="144.445" fill="white" transform="matrix(-1 0 0 1 200 0)"/>
</clipPath>
</defs>
</svg>
